<svg version="1.1" id="Layer_1" xmlns="http://www.w3.org/2000/svg" xmlns:xlink="http://www.w3.org/1999/xlink" x="0px" y="0px"
	 width="100%" viewBox="0 0 1400 1400" enable-background="new 0 0 1400 1400" xml:space="preserve">
<circle cx="700" cy="700" r="700" fill="#734ee4" opacity="1.000000"/>
<g transform="translate(188, 188)">
<path fill="#FFFFFF" opacity="1.000000" stroke="none" 
	d="
M487.000000,881.000000 
	C390.672150,881.000000 294.844299,880.992188 199.016464,881.007019 
	C181.105576,881.009827 161.141541,864.695435 159.016296,846.816528 
	C158.553680,842.924866 158.042252,839.004700 158.041489,835.097534 
	C157.995178,600.444336 158.074432,365.791016 157.858322,131.137985 
	C157.841080,112.420570 172.334824,92.758659 192.151428,89.031395 
	C195.174911,88.462715 198.280807,88.042786 201.348770,88.041702 
	C338.007599,87.993484 474.666412,87.982056 611.325256,88.032875 
	C622.681091,88.037102 632.435913,92.607445 640.608948,100.222961 
	C648.163879,107.262512 655.313293,114.740349 662.576111,122.089600 
	C687.652466,147.464264 712.690491,172.876831 737.765564,198.252808 
	C744.612549,205.181900 751.601990,211.970947 758.406677,218.940811 
	C763.484680,224.142059 768.429932,229.476837 773.326477,234.850479 
	C778.772827,240.827469 784.477600,246.624771 789.375732,253.031082 
	C795.207825,260.659088 797.219910,269.991333 797.848755,279.306732 
	C798.520508,289.257843 798.000000,299.289429 798.000000,309.688477 
	C796.701660,309.794708 795.447327,309.986786 794.192993,309.987152 
	C740.196106,310.002106 686.198181,310.168121 632.203125,309.855865 
	C621.607178,309.794617 612.395813,304.797913 604.332581,297.859741 
	C593.953613,288.928986 587.924561,277.561859 585.172791,264.318146 
	C584.873596,262.877930 585.006165,261.339661 585.005859,259.846893 
	C584.998352,223.015671 585.000000,186.184464 585.000000,149.353241 
	C585.000000,147.718521 585.000000,146.083786 585.000000,144.000000 
	C582.900818,144.000000 581.121094,144.000000 579.341370,144.000000 
	C460.514832,144.000000 341.688293,144.000015 222.861771,143.999954 
	C219.552429,143.999954 216.215012,143.724442 212.939957,144.059326 
	C207.186523,144.647659 204.324493,147.892441 204.008102,153.614578 
	C203.952988,154.611481 204.000000,155.614029 204.000000,156.613968 
	C203.999985,376.601379 203.999878,596.588745 204.000381,816.576172 
	C204.000412,826.710510 207.268997,829.999512 217.344193,829.999573 
	C384.334625,830.000305 551.325073,830.012085 718.315491,829.944824 
	C723.610718,829.942688 727.604309,830.657288 731.372742,835.459961 
	C737.012390,842.647278 744.218445,848.593750 750.642273,855.181091 
	C755.716431,860.384399 760.602661,865.770691 765.599609,871.049866 
	C767.756348,873.328430 767.668518,874.796204 764.502197,876.131653 
	C758.068726,878.845093 751.699585,881.088074 744.481628,881.077881 
	C658.821228,880.957031 573.160583,881.000000 487.000000,881.000000 
M487.500000,881.000000 
	C573.160583,881.000000 658.821228,880.957031 744.481628,881.077881 
	C751.699585,881.088074 758.068726,878.845093 764.502197,876.131653 
	C767.668518,874.796204 767.756348,873.328430 765.599609,871.049866 
	C760.602661,865.770691 755.716431,860.384399 750.642273,855.181091 
	C744.218445,848.593750 737.012390,842.647278 731.372742,835.459961 
	C727.604309,830.657288 723.610718,829.942688 718.315491,829.944824 
	C551.325073,830.012085 384.334625,830.000305 217.344193,829.999573 
	C207.268997,829.999512 204.000412,826.710510 204.000381,816.576172 
	C203.999878,596.588745 203.999985,376.601379 204.000000,156.613968 
	C204.000000,155.614029 203.952988,154.611481 204.008102,153.614578 
	C204.324493,147.892441 207.186523,144.647659 212.939957,144.059326 
	C216.215012,143.724442 219.552429,143.999954 222.861771,143.999954 
	C341.688293,144.000015 460.514832,144.000000 579.341370,144.000000 
	C581.121094,144.000000 582.900818,144.000000 585.000000,144.000000 
	C585.000000,146.083786 585.000000,147.718521 585.000000,149.353241 
	C585.000000,186.184464 584.998352,223.015671 585.005859,259.846893 
	C585.006165,261.339661 584.873596,262.877930 585.172791,264.318146 
	C587.924561,277.561859 593.953613,288.928986 604.332581,297.859741 
	C612.395813,304.797913 621.607178,309.794617 632.203125,309.855865 
	C686.198181,310.168121 740.196106,310.002106 794.192993,309.987152 
	C795.447327,309.986786 796.701660,309.794708 798.000000,309.688477 
	C798.000000,299.289429 798.520508,289.257843 797.848755,279.306732 
	C797.219910,269.991333 795.207825,260.659088 789.375732,253.031082 
	C784.477600,246.624771 778.772827,240.827469 773.326477,234.850479 
	C768.429932,229.476837 763.484680,224.142059 758.406677,218.940811 
	C751.601990,211.970947 744.612549,205.181900 737.765564,198.252808 
	C712.690491,172.876831 687.652466,147.464264 662.576111,122.089600 
	C655.313293,114.740349 648.163879,107.262512 640.608948,100.222961 
	C632.435913,92.607445 622.681091,88.037102 611.325256,88.032875 
	C474.666412,87.982056 338.007599,87.993484 201.348770,88.041702 
	C198.280807,88.042786 195.174911,88.462715 192.151428,89.031395 
	C172.334824,92.758659 157.841080,112.420570 157.858322,131.137985 
	C158.074432,365.791016 157.995178,600.444336 158.041489,835.097534 
	C158.042252,839.004700 158.553680,842.924866 159.016296,846.816528 
	C161.141541,864.695435 181.105576,881.009827 199.016464,881.007019 
	C294.844299,880.992188 390.672150,881.000000 487.500000,881.000000 
M841.035156,489.285828 
	C835.995056,477.734406 831.701660,465.779907 825.736084,454.728088 
	C817.244690,438.997131 806.451660,424.630859 794.024597,411.790405 
	C784.666199,402.120819 774.695435,392.832794 763.959229,384.754364 
	C745.129211,370.585663 724.327271,359.879608 701.866089,352.287720 
	C678.309753,344.325714 654.262146,340.285797 629.447998,341.050507 
	C617.106323,341.430878 604.618896,341.325653 592.488098,343.261719 
	C576.217468,345.858490 560.345642,350.504089 545.018127,356.906158 
	C526.067932,364.821381 508.419067,374.715057 492.047180,387.231964 
	C475.455261,399.917175 461.020905,414.662689 448.571411,431.179871 
	C434.289093,450.128723 423.591949,471.166382 415.970917,493.754730 
	C410.093048,511.176331 406.250580,529.045593 405.222015,547.291687 
	C404.441071,561.145447 405.586975,575.114746 406.020996,589.028076 
	C406.422729,601.906494 409.581909,614.265442 412.898102,626.662048 
	C417.522247,643.948120 424.289490,660.369690 433.190735,675.716370 
	C439.889130,687.265076 448.389557,697.776245 456.190155,708.676025 
	C466.929108,723.681580 480.890381,735.551575 495.380280,746.535278 
	C514.160522,760.771057 535.095764,771.329346 557.507507,778.937012 
	C575.073914,784.899963 593.105225,789.027344 611.513977,789.723694 
	C628.297180,790.358582 645.177490,788.840027 661.998291,787.953979 
	C679.254944,787.044922 695.483948,781.217712 711.444153,775.471069 
	C723.406067,771.164062 734.299805,763.909363 745.740295,758.107239 
	C746.971558,757.482788 749.461487,757.114685 750.036194,757.779114 
	C754.013855,762.378174 757.638611,767.282471 761.578918,772.348755 
	C760.015686,773.734802 758.841858,774.673706 757.785217,775.729858 
	C751.883545,781.629211 750.771057,787.919556 756.034058,794.347229 
	C765.485779,805.890442 775.596130,816.899231 785.550171,828.024963 
	C795.319641,838.944397 805.157410,849.805176 815.108337,860.559265 
	C829.356628,875.957520 843.440491,891.525452 858.156189,906.467834 
	C868.862671,917.339294 882.268982,921.431702 897.397095,917.945190 
	C909.706726,915.108276 919.486694,908.015930 924.541443,896.581055 
	C931.693909,880.401184 928.521240,865.107666 916.534180,852.104065 
	C900.622375,834.842773 884.412781,817.855225 868.282104,800.796509 
	C855.402161,787.175476 842.391113,773.678101 829.555908,760.015320 
	C824.160767,754.272156 819.028748,748.278992 813.851257,742.334961 
	C809.668762,737.533325 802.468933,734.724304 796.322205,739.929504 
	C794.541016,741.437988 792.425781,742.552063 790.644897,743.727417 
	C787.358276,739.859802 784.224731,736.172363 781.505859,732.972900 
	C791.259644,721.876465 801.541443,711.537903 810.222290,699.995239 
	C824.386536,681.161377 835.195984,660.402344 842.691406,637.902100 
	C847.451355,623.613525 851.267395,609.122681 852.816895,594.223328 
	C854.046631,582.399231 854.036804,570.402954 853.886780,558.491821 
	C853.758728,548.318787 853.643005,537.966064 851.725159,528.039917 
	C849.239075,515.172729 844.971008,502.649780 841.035156,489.285828 
M414.500000,215.000000 
	C366.201660,215.000000 317.902893,214.920609 269.605774,215.164047 
	C266.078003,215.181824 261.025482,216.502090 259.337524,219.006653 
	C254.824234,225.703323 252.322021,233.411179 254.968079,241.877960 
	C256.638550,247.223022 262.563171,252.981842 267.227081,252.983582 
	C332.346649,253.007767 397.466217,253.020996 462.585571,252.904068 
	C464.656036,252.900345 467.087830,251.939590 468.732391,250.641235 
	C477.602142,243.638779 478.321442,235.032196 475.464050,226.055405 
	C473.198944,218.939392 466.990753,215.000015 459.468201,215.000000 
	C444.812134,214.999985 430.156067,215.000000 414.500000,215.000000 
M373.500000,308.000000 
	C339.007324,308.000000 304.514648,307.985687 270.022064,308.038513 
	C268.122406,308.041443 266.205658,308.518066 264.327606,308.918518 
	C257.160583,310.446686 252.073563,324.728668 254.520676,332.092834 
	C257.594788,341.343903 262.272797,345.977295 269.523468,345.981506 
	C326.844635,346.014771 384.165924,346.045563 441.486481,345.861023 
	C444.255493,345.852112 447.364136,344.306519 449.719513,342.636963 
	C457.192688,337.339722 457.105164,329.139282 455.597290,321.616119 
	C454.112885,314.210083 449.464050,307.417755 438.479279,307.789276 
	C417.174866,308.509796 395.828796,308.000000 373.500000,308.000000 
M367.500000,719.000000 
	C335.182709,719.000000 302.865295,718.971375 270.548279,719.063599 
	C268.363068,719.069824 266.092316,719.750671 264.013000,720.525024 
	C257.447479,722.969910 255.300201,728.858154 254.174484,734.856689 
	C252.282455,744.938416 259.703552,758.499146 272.576355,758.280762 
	C316.042267,757.543518 359.528473,758.004333 403.006897,757.983398 
	C404.640656,757.982605 406.343292,757.989319 407.896973,757.564819 
	C418.987579,754.535034 423.070221,742.356628 420.365540,732.928833 
	C417.544983,723.097107 413.381775,718.534302 401.481140,718.923523 
	C390.498352,719.282776 379.494537,719.000000 367.500000,719.000000 
M361.496887,400.000000 
	C331.676270,400.000000 301.854553,400.143372 272.035553,399.923889 
	C261.288849,399.844788 259.697357,402.236847 255.543808,411.104095 
	C250.941177,420.930176 255.955734,438.001801 270.510498,438.000763 
	C304.162811,437.998352 337.816223,438.125458 371.465790,437.821899 
	C375.167419,437.788483 379.342590,435.994904 382.435455,433.801300 
	C389.305603,428.928558 390.853149,417.781006 386.783142,409.437653 
	C383.687927,403.092621 379.091614,399.200104 371.486145,399.951965 
	C368.516449,400.245544 365.493469,400.000000 361.496887,400.000000 
M270.756622,629.000000 
	C267.990021,629.684082 264.601868,629.579163 262.562225,631.186035 
	C252.658234,638.988220 251.788132,650.022217 257.326416,660.347473 
	C259.851990,665.055969 264.443054,668.104675 270.661041,668.073425 
	C302.309296,667.914246 333.958801,668.018555 365.607727,667.953796 
	C367.497711,667.949951 369.549896,667.636414 371.247742,666.858398 
	C379.418732,663.114136 383.924744,652.876709 381.661713,644.105225 
	C379.105072,634.195801 373.699615,628.645691 361.649353,628.840454 
	C331.673889,629.325134 301.685333,629.000000 270.756622,629.000000 
M257.409210,544.072998 
	C256.396454,546.748962 255.042480,549.349609 254.432175,552.114441 
	C252.224365,562.116394 258.222656,576.398254 272.292053,576.140930 
	C298.936279,575.653564 325.595825,576.032227 352.248871,575.978027 
	C359.186096,575.963928 364.425385,573.296875 367.854340,566.738342 
	C370.495117,561.687439 370.735352,556.388062 369.768585,551.425110 
	C368.421722,544.511108 364.260254,537.545471 354.394318,537.769531 
	C325.756989,538.419922 297.095245,538.027405 268.443237,537.971985 
	C263.866119,537.963135 260.247223,539.392639 257.409210,544.072998 
z"/>
<path fill="#FFFFFF" opacity="1.000000" stroke="none" 
	d="
M487.000000,881.000000 
	C390.672150,881.000000 294.844299,880.992188 199.016464,881.007019 
	C181.105576,881.009827 161.141541,864.695435 159.016296,846.816528 
	C158.553680,842.924866 158.042252,839.004700 158.041489,835.097534 
	C157.995178,600.444336 158.074432,365.791016 157.858322,131.137985 
	C157.841080,112.420570 172.334824,92.758659 192.151428,89.031395 
	C195.174911,88.462715 198.280807,88.042786 201.348770,88.041702 
	C338.007599,87.993484 474.666412,87.982056 611.325256,88.032875 
	C622.681091,88.037102 632.435913,92.607445 640.608948,100.222961 
	C648.163879,107.262512 655.313293,114.740349 662.576111,122.089600 
	C687.652466,147.464264 712.690491,172.876831 737.765564,198.252808 
	C744.612549,205.181900 751.601990,211.970947 758.406677,218.940811 
	C763.484680,224.142059 768.429932,229.476837 773.326477,234.850479 
	C778.772827,240.827469 784.477600,246.624771 789.375732,253.031082 
	C795.207825,260.659088 797.219910,269.991333 797.848755,279.306732 
	C798.520508,289.257843 798.000000,299.289429 798.000000,309.688477 
	C796.701660,309.794708 795.447327,309.986786 794.192993,309.987152 
	C740.196106,310.002106 686.198181,310.168121 632.203125,309.855865 
	C621.607178,309.794617 612.395813,304.797913 604.332581,297.859741 
	C593.953613,288.928986 587.924561,277.561859 585.172791,264.318146 
	C584.873596,262.877930 585.006165,261.339661 585.005859,259.846893 
	C584.998352,223.015671 585.000000,186.184464 585.000000,149.353241 
	C585.000000,147.718521 585.000000,146.083786 585.000000,144.000000 
	C582.900818,144.000000 581.121094,144.000000 579.341370,144.000000 
	C460.514832,144.000000 341.688293,144.000015 222.861771,143.999954 
	C219.552429,143.999954 216.215012,143.724442 212.939957,144.059326 
	C207.186523,144.647659 204.324493,147.892441 204.008102,153.614578 
	C203.952988,154.611481 204.000000,155.614029 204.000000,156.613968 
	C203.999985,376.601379 203.999878,596.588745 204.000381,816.576172 
	C204.000412,826.710510 207.268997,829.999512 217.344193,829.999573 
	C384.334625,830.000305 551.325073,830.012085 718.315491,829.944824 
	C723.610718,829.942688 727.604309,830.657288 731.372742,835.459961 
	C737.012390,842.647278 744.218445,848.593750 750.642273,855.181091 
	C755.716431,860.384399 760.602661,865.770691 765.599609,871.049866 
	C767.756348,873.328430 767.668518,874.796204 764.502197,876.131653 
	C758.068726,878.845093 751.699585,881.088074 744.481628,881.077881 
	C658.821228,880.957031 573.160583,881.000000 487.000000,881.000000 
z"/>
<path fill="#FFFFFF" opacity="1.000000" stroke="none" 
	d="
M841.252563,489.632233 
	C844.971008,502.649780 849.239075,515.172729 851.725159,528.039917 
	C853.643005,537.966064 853.758728,548.318787 853.886780,558.491821 
	C854.036804,570.402954 854.046631,582.399231 852.816895,594.223328 
	C851.267395,609.122681 847.451355,623.613525 842.691406,637.902100 
	C835.195984,660.402344 824.386536,681.161377 810.222290,699.995239 
	C801.541443,711.537903 791.259644,721.876465 781.505859,732.972900 
	C784.224731,736.172363 787.358276,739.859802 790.644897,743.727417 
	C792.425781,742.552063 794.541016,741.437988 796.322205,739.929504 
	C802.468933,734.724304 809.668762,737.533325 813.851257,742.334961 
	C819.028748,748.278992 824.160767,754.272156 829.555908,760.015320 
	C842.391113,773.678101 855.402161,787.175476 868.282104,800.796509 
	C884.412781,817.855225 900.622375,834.842773 916.534180,852.104065 
	C928.521240,865.107666 931.693909,880.401184 924.541443,896.581055 
	C919.486694,908.015930 909.706726,915.108276 897.397095,917.945190 
	C882.268982,921.431702 868.862671,917.339294 858.156189,906.467834 
	C843.440491,891.525452 829.356628,875.957520 815.108337,860.559265 
	C805.157410,849.805176 795.319641,838.944397 785.550171,828.024963 
	C775.596130,816.899231 765.485779,805.890442 756.034058,794.347229 
	C750.771057,787.919556 751.883545,781.629211 757.785217,775.729858 
	C758.841858,774.673706 760.015686,773.734802 761.578918,772.348755 
	C757.638611,767.282471 754.013855,762.378174 750.036194,757.779114 
	C749.461487,757.114685 746.971558,757.482788 745.740295,758.107239 
	C734.299805,763.909363 723.406067,771.164062 711.444153,775.471069 
	C695.483948,781.217712 679.254944,787.044922 661.998291,787.953979 
	C645.177490,788.840027 628.297180,790.358582 611.513977,789.723694 
	C593.105225,789.027344 575.073914,784.899963 557.507507,778.937012 
	C535.095764,771.329346 514.160522,760.771057 495.380280,746.535278 
	C480.890381,735.551575 466.929108,723.681580 456.190155,708.676025 
	C448.389557,697.776245 439.889130,687.265076 433.190735,675.716370 
	C424.289490,660.369690 417.522247,643.948120 412.898102,626.662048 
	C409.581909,614.265442 406.422729,601.906494 406.020996,589.028076 
	C405.586975,575.114746 404.441071,561.145447 405.222015,547.291687 
	C406.250580,529.045593 410.093048,511.176331 415.970917,493.754730 
	C423.591949,471.166382 434.289093,450.128723 448.571411,431.179871 
	C461.020905,414.662689 475.455261,399.917175 492.047180,387.231964 
	C508.419067,374.715057 526.067932,364.821381 545.018127,356.906158 
	C560.345642,350.504089 576.217468,345.858490 592.488098,343.261719 
	C604.618896,341.325653 617.106323,341.430878 629.447998,341.050507 
	C654.262146,340.285797 678.309753,344.325714 701.866089,352.287720 
	C724.327271,359.879608 745.129211,370.585663 763.959229,384.754364 
	C774.695435,392.832794 784.666199,402.120819 794.024597,411.790405 
	C806.451660,424.630859 817.244690,438.997131 825.736084,454.728088 
	C831.701660,465.779907 835.995056,477.734406 841.252563,489.632233 
M510.004578,449.493195 
	C497.708405,461.327393 487.696259,474.924103 479.637238,489.897522 
	C465.333038,516.474426 458.438751,544.740051 459.831909,575.116333 
	C460.410980,587.742920 461.916351,600.049988 464.931824,612.297913 
	C473.104858,645.494263 489.658630,673.449768 515.430115,696.103516 
	C528.050232,707.196960 541.844360,716.102661 557.084656,723.068787 
	C575.578857,731.522339 595.202515,735.324829 615.190674,736.819641 
	C633.060974,738.156006 650.870483,736.024231 668.372559,731.987488 
	C696.580444,725.481567 721.547607,712.530151 743.083191,693.282349 
	C755.073120,682.566101 765.137634,670.172424 773.452698,656.244019 
	C787.567505,632.600403 795.200562,606.957397 796.709778,579.753662 
	C797.411560,567.103333 795.540222,554.210815 793.890991,541.551147 
	C790.924683,518.780823 781.227478,498.484955 768.852234,479.468109 
	C759.262329,464.731384 747.353943,452.068237 733.635559,440.922943 
	C720.493164,430.245636 706.276794,421.395874 690.608276,415.445587 
	C665.023132,405.729340 638.447327,402.020081 610.992432,404.890137 
	C596.766296,406.377289 583.023376,409.244934 569.415222,413.713043 
	C547.030273,421.062958 527.679077,433.119354 510.004578,449.493195 
z"/>
<path fill="#FFFFFF" opacity="1.000000" stroke="none" 
	d="
M415.000000,215.000000 
	C430.156067,215.000000 444.812134,214.999985 459.468201,215.000000 
	C466.990753,215.000015 473.198944,218.939392 475.464050,226.055405 
	C478.321442,235.032196 477.602142,243.638779 468.732391,250.641235 
	C467.087830,251.939590 464.656036,252.900345 462.585571,252.904068 
	C397.466217,253.020996 332.346649,253.007767 267.227081,252.983582 
	C262.563171,252.981842 256.638550,247.223022 254.968079,241.877960 
	C252.322021,233.411179 254.824234,225.703323 259.337524,219.006653 
	C261.025482,216.502090 266.078003,215.181824 269.605774,215.164047 
	C317.902893,214.920609 366.201660,215.000000 415.000000,215.000000 
z"/>
<path fill="#FFFFFF" opacity="1.000000" stroke="none" 
	d="
M374.000000,308.000000 
	C395.828796,308.000000 417.174866,308.509796 438.479279,307.789276 
	C449.464050,307.417755 454.112885,314.210083 455.597290,321.616119 
	C457.105164,329.139282 457.192688,337.339722 449.719513,342.636963 
	C447.364136,344.306519 444.255493,345.852112 441.486481,345.861023 
	C384.165924,346.045563 326.844635,346.014771 269.523468,345.981506 
	C262.272797,345.977295 257.594788,341.343903 254.520676,332.092834 
	C252.073563,324.728668 257.160583,310.446686 264.327606,308.918518 
	C266.205658,308.518066 268.122406,308.041443 270.022064,308.038513 
	C304.514648,307.985687 339.007324,308.000000 374.000000,308.000000 
z"/>
<path fill="#FFFFFF" opacity="1.000000" stroke="none" 
	d="
M368.000000,719.000000 
	C379.494537,719.000000 390.498352,719.282776 401.481140,718.923523 
	C413.381775,718.534302 417.544983,723.097107 420.365540,732.928833 
	C423.070221,742.356628 418.987579,754.535034 407.896973,757.564819 
	C406.343292,757.989319 404.640656,757.982605 403.006897,757.983398 
	C359.528473,758.004333 316.042267,757.543518 272.576355,758.280762 
	C259.703552,758.499146 252.282455,744.938416 254.174484,734.856689 
	C255.300201,728.858154 257.447479,722.969910 264.013000,720.525024 
	C266.092316,719.750671 268.363068,719.069824 270.548279,719.063599 
	C302.865295,718.971375 335.182709,719.000000 368.000000,719.000000 
z"/>
<path fill="#FFFFFF" opacity="1.000000" stroke="none" 
	d="
M361.995819,400.000000 
	C365.493469,400.000000 368.516449,400.245544 371.486145,399.951965 
	C379.091614,399.200104 383.687927,403.092621 386.783142,409.437653 
	C390.853149,417.781006 389.305603,428.928558 382.435455,433.801300 
	C379.342590,435.994904 375.167419,437.788483 371.465790,437.821899 
	C337.816223,438.125458 304.162811,437.998352 270.510498,438.000763 
	C255.955734,438.001801 250.941177,420.930176 255.543808,411.104095 
	C259.697357,402.236847 261.288849,399.844788 272.035553,399.923889 
	C301.854553,400.143372 331.676270,400.000000 361.995819,400.000000 
z"/>
<path fill="#FFFFFF" opacity="1.000000" stroke="none" 
	d="
M271.229309,629.000000 
	C301.685333,629.000000 331.673889,629.325134 361.649353,628.840454 
	C373.699615,628.645691 379.105072,634.195801 381.661713,644.105225 
	C383.924744,652.876709 379.418732,663.114136 371.247742,666.858398 
	C369.549896,667.636414 367.497711,667.949951 365.607727,667.953796 
	C333.958801,668.018555 302.309296,667.914246 270.661041,668.073425 
	C264.443054,668.104675 259.851990,665.055969 257.326416,660.347473 
	C251.788132,650.022217 252.658234,638.988220 262.562225,631.186035 
	C264.601868,629.579163 267.990021,629.684082 271.229309,629.000000 
z"/>
<path fill="#FFFFFF" opacity="1.000000" stroke="none" 
	d="
M257.692200,543.806213 
	C260.247223,539.392639 263.866119,537.963135 268.443237,537.971985 
	C297.095245,538.027405 325.756989,538.419922 354.394318,537.769531 
	C364.260254,537.545471 368.421722,544.511108 369.768585,551.425110 
	C370.735352,556.388062 370.495117,561.687439 367.854340,566.738342 
	C364.425385,573.296875 359.186096,575.963928 352.248871,575.978027 
	C325.595825,576.032227 298.936279,575.653564 272.292053,576.140930 
	C258.222656,576.398254 252.224365,562.116394 254.432175,552.114441 
	C255.042480,549.349609 256.396454,546.748962 257.692200,543.806213 
z"/>
<path fill="#FFFFFF" opacity="1.000000" stroke="none" 
	d="
M494.005127,547.627014 
	C498.542236,535.638611 507.708923,533.027100 516.013977,535.958374 
	C521.955139,538.055359 526.882141,544.545166 526.966797,550.964417 
	C527.094116,560.610596 527.101501,570.261108 526.968323,579.907104 
	C526.859131,587.812073 517.605591,596.599915 509.774658,595.920898 
	C500.952393,595.155823 493.985352,588.353577 493.996826,579.503296 
	C494.010376,569.023743 494.000366,558.544128 494.005127,547.627014 
z"/>
<path fill="#734ee4" opacity="1.000000" stroke="none" 
	d="
M510.256714,449.243866 
	C527.679077,433.119354 547.030273,421.062958 569.415222,413.713043 
	C583.023376,409.244934 596.766296,406.377289 610.992432,404.890137 
	C638.447327,402.020081 665.023132,405.729340 690.608276,415.445587 
	C706.276794,421.395874 720.493164,430.245636 733.635559,440.922943 
	C747.353943,452.068237 759.262329,464.731384 768.852234,479.468109 
	C781.227478,498.484955 790.924683,518.780823 793.890991,541.551147 
	C795.540222,554.210815 797.411560,567.103333 796.709778,579.753662 
	C795.200562,606.957397 787.567505,632.600403 773.452698,656.244019 
	C765.137634,670.172424 755.073120,682.566101 743.083191,693.282349 
	C721.547607,712.530151 696.580444,725.481567 668.372559,731.987488 
	C650.870483,736.024231 633.060974,738.156006 615.190674,736.819641 
	C595.202515,735.324829 575.578857,731.522339 557.084656,723.068787 
	C541.844360,716.102661 528.050232,707.196960 515.430115,696.103516 
	C489.658630,673.449768 473.104858,645.494263 464.931824,612.297913 
	C461.916351,600.049988 460.410980,587.742920 459.831909,575.116333 
	C458.438751,544.740051 465.333038,516.474426 479.637238,489.897522 
	C487.696259,474.924103 497.708405,461.327393 510.256714,449.243866 
M647.000000,488.502869 
	C647.000000,484.672791 647.002319,480.842743 646.999573,477.012665 
	C646.993103,468.030853 640.183655,461.691071 631.588928,460.825806 
	C621.863953,459.846771 613.895752,469.123840 613.916016,476.979004 
	C614.069519,536.594299 614.061401,596.210266 613.929932,655.825623 
	C613.911499,664.190979 621.541748,673.085632 630.978333,672.939880 
	C638.068848,672.830505 647.183350,666.410583 647.130310,655.858887 
	C646.851868,600.407715 647.000000,544.954407 647.000000,488.502869 
M581.215698,624.244629 
	C581.477112,623.008179 581.965576,621.772034 581.966980,620.535278 
	C582.007812,584.587463 582.009644,548.639648 581.963684,512.691833 
	C581.961914,511.292114 581.638977,509.806213 581.106567,508.507751 
	C577.544373,499.819611 570.022400,496.747742 563.187378,498.157318 
	C554.596985,499.928894 549.114685,505.841827 549.066101,515.622131 
	C548.895691,549.904907 548.969543,584.189087 549.031128,618.472534 
	C549.041016,623.958435 551.477295,628.647461 555.738525,631.889893 
	C564.599915,638.632690 576.458252,634.969238 581.215698,624.244629 
M710.000000,514.778198 
	C709.720459,513.042786 709.739563,511.190155 709.111633,509.591614 
	C705.707520,500.925842 698.081909,497.741974 691.239746,499.152771 
	C682.512146,500.952423 677.177246,506.731812 677.105530,516.100586 
	C676.840210,550.757080 676.909790,585.417114 677.057495,620.075012 
	C677.099365,629.883789 684.959900,636.288513 695.748169,636.000061 
	C703.268677,635.798950 709.999268,628.101074 709.999573,619.693970 
	C710.000610,585.035461 710.000000,550.377014 710.000000,514.778198 
M736.000000,561.505066 
	C736.000000,567.502502 736.012878,573.500061 735.997009,579.497437 
	C735.973450,588.371277 743.004578,595.201111 751.808167,595.919006 
	C759.662354,596.559448 768.871399,587.737427 768.971558,579.833191 
	C769.091858,570.338745 769.193420,560.836487 768.940674,551.347229 
	C768.726501,543.308594 762.270996,534.257385 750.662781,534.812988 
	C743.682861,535.146973 734.585327,543.843811 735.917969,551.526245 
	C736.422974,554.437378 736.000000,557.509460 736.000000,561.505066 
M494.000580,548.064575 
	C494.000366,558.544128 494.010376,569.023743 493.996826,579.503296 
	C493.985352,588.353577 500.952393,595.155823 509.774658,595.920898 
	C517.605591,596.599915 526.859131,587.812073 526.968323,579.907104 
	C527.101501,570.261108 527.094116,560.610596 526.966797,550.964417 
	C526.882141,544.545166 521.955139,538.055359 516.013977,535.958374 
	C507.708923,533.027100 498.542236,535.638611 494.000580,548.064575 
z"/>
<path fill="#FFFFFF" opacity="1.000000" stroke="none" 
	d="
M647.000000,489.002380 
	C647.000000,544.954407 646.851868,600.407715 647.130310,655.858887 
	C647.183350,666.410583 638.068848,672.830505 630.978333,672.939880 
	C621.541748,673.085632 613.911499,664.190979 613.929932,655.825623 
	C614.061401,596.210266 614.069519,536.594299 613.916016,476.979004 
	C613.895752,469.123840 621.863953,459.846771 631.588928,460.825806 
	C640.183655,461.691071 646.993103,468.030853 646.999573,477.012665 
	C647.002319,480.842743 647.000000,484.672791 647.000000,489.002380 
z"/>
<path fill="#FFFFFF" opacity="1.000000" stroke="none" 
	d="
M581.108398,624.642212 
	C576.458252,634.969238 564.599915,638.632690 555.738525,631.889893 
	C551.477295,628.647461 549.041016,623.958435 549.031128,618.472534 
	C548.969543,584.189087 548.895691,549.904907 549.066101,515.622131 
	C549.114685,505.841827 554.596985,499.928894 563.187378,498.157318 
	C570.022400,496.747742 577.544373,499.819611 581.106567,508.507751 
	C581.638977,509.806213 581.961914,511.292114 581.963684,512.691833 
	C582.009644,548.639648 582.007812,584.587463 581.966980,620.535278 
	C581.965576,621.772034 581.477112,623.008179 581.108398,624.642212 
z"/>
<path fill="#FFFFFF" opacity="1.000000" stroke="none" 
	d="
M710.000000,515.248352 
	C710.000000,550.377014 710.000610,585.035461 709.999573,619.693970 
	C709.999268,628.101074 703.268677,635.798950 695.748169,636.000061 
	C684.959900,636.288513 677.099365,629.883789 677.057495,620.075012 
	C676.909790,585.417114 676.840210,550.757080 677.105530,516.100586 
	C677.177246,506.731812 682.512146,500.952423 691.239746,499.152771 
	C698.081909,497.741974 705.707520,500.925842 709.111633,509.591614 
	C709.739563,511.190155 709.720459,513.042786 710.000000,515.248352 
z"/>
<path fill="#FFFFFF" opacity="1.000000" stroke="none" 
	d="
M736.000000,561.006592 
	C736.000000,557.509460 736.422974,554.437378 735.917969,551.526245 
	C734.585327,543.843811 743.682861,535.146973 750.662781,534.812988 
	C762.270996,534.257385 768.726501,543.308594 768.940674,551.347229 
	C769.193420,560.836487 769.091858,570.338745 768.971558,579.833191 
	C768.871399,587.737427 759.662354,596.559448 751.808167,595.919006 
	C743.004578,595.201111 735.973450,588.371277 735.997009,579.497437 
	C736.012878,573.500061 736.000000,567.502502 736.000000,561.006592 
z"/>
<path fill="#FFFFFF" opacity="1.000000" stroke="none" 
	d="
M494.005127,547.627014 
	C498.542236,535.638611 507.708923,533.027100 516.013977,535.958374 
	C521.955139,538.055359 526.882141,544.545166 526.966797,550.964417 
	C527.094116,560.610596 527.101501,570.261108 526.968323,579.907104 
	C526.859131,587.812073 517.605591,596.599915 509.774658,595.920898 
	C500.952393,595.155823 493.985352,588.353577 493.996826,579.503296 
	C494.010376,569.023743 494.000366,558.544128 494.005127,547.627014 
z"/>
</g>
</svg>