<?xml version="1.0" encoding="utf-8"?>
<svg version="1.1" id="Layer_1" xmlns="http://www.w3.org/2000/svg" x="0px" y="0px" width="100%" viewBox="0 0 1400 1400" enable-background="new 0 0 1400 1400">
  <circle cx="700.408" cy="699.716" r="697.161" fill="#734ee4" opacity="1.000000" style=""/>
  <g transform="translate(188, 188)">
    <path fill="#FFFFFF" opacity="1.000000" stroke="none" d="M 487 881 C 390.672 881 294.844 880.992 199.016 881.007 C 181.106 881.01 161.142 864.695 159.016 846.817 C 158.554 842.925 158.042 839.005 158.041 835.098 C 157.995 600.444 158.074 365.791 157.858 131.138 C 157.841 112.421 172.335 92.759 192.151 89.031 C 195.175 88.463 198.281 88.043 201.349 88.042 C 338.008 87.993 474.666 87.982 611.325 88.033 C 622.681 88.037 632.436 92.607 640.609 100.223 C 648.164 107.263 655.313 114.74 662.576 122.09 C 687.652 147.464 712.69 172.877 737.766 198.253 C 744.613 205.182 751.602 211.971 758.407 218.941 C 763.485 224.142 768.43 229.477 773.326 234.85 C 778.773 240.827 784.478 246.625 789.376 253.031 C 795.208 260.659 797.22 269.991 797.849 279.307 C 798.521 289.258 798 299.289 798 309.688 C 796.702 309.795 795.447 309.987 794.193 309.987 C 740.196 310.002 686.198 310.168 632.203 309.856 C 621.607 309.795 612.396 304.798 604.333 297.86 C 593.954 288.929 587.925 277.562 585.173 264.318 C 584.874 262.878 585.006 261.34 585.006 259.847 C 584.998 223.016 585 186.184 585 149.353 C 585 147.719 585 146.084 585 144 C 582.901 144 581.121 144 579.341 144 C 460.515 144 341.688 144 222.862 144 C 219.552 144 216.215 143.724 212.94 144.059 C 207.187 144.648 204.324 147.892 204.008 153.615 C 203.953 154.611 204 155.614 204 156.614 C 204 376.601 204 596.589 204 816.576 C 204 826.711 207.269 830 217.344 830 C 384.335 830 551.325 830.012 718.315 829.945 C 723.611 829.943 727.604 830.657 731.373 835.46 C 737.012 842.647 744.218 848.594 750.642 855.181 C 755.716 860.384 760.603 865.771 765.6 871.05 C 767.756 873.328 767.669 874.796 764.502 876.132 C 758.069 878.845 751.7 881.088 744.482 881.078 C 658.821 880.957 573.161 881 487 881 M 487.5 881 C 573.161 881 658.821 880.957 744.482 881.078 C 751.7 881.088 758.069 878.845 764.502 876.132 C 767.669 874.796 767.756 873.328 765.6 871.05 C 760.603 865.771 755.716 860.384 750.642 855.181 C 744.218 848.594 737.012 842.647 731.373 835.46 C 727.604 830.657 723.611 829.943 718.315 829.945 C 551.325 830.012 384.335 830 217.344 830 C 207.269 830 204 826.711 204 816.576 C 204 596.589 204 376.601 204 156.614 C 204 155.614 203.953 154.611 204.008 153.615 C 204.324 147.892 207.187 144.648 212.94 144.059 C 216.215 143.724 219.552 144 222.862 144 C 341.688 144 460.515 144 579.341 144 C 581.121 144 582.901 144 585 144 C 585 146.084 585 147.719 585 149.353 C 585 186.184 584.998 223.016 585.006 259.847 C 585.006 261.34 584.874 262.878 585.173 264.318 C 587.925 277.562 593.954 288.929 604.333 297.86 C 612.396 304.798 621.607 309.795 632.203 309.856 C 686.198 310.168 740.196 310.002 794.193 309.987 C 795.447 309.987 796.702 309.795 798 309.688 C 798 299.289 798.521 289.258 797.849 279.307 C 797.22 269.991 795.208 260.659 789.376 253.031 C 784.478 246.625 778.773 240.827 773.326 234.85 C 768.43 229.477 763.485 224.142 758.407 218.941 C 751.602 211.971 744.613 205.182 737.766 198.253 C 712.69 172.877 687.652 147.464 662.576 122.09 C 655.313 114.74 648.164 107.263 640.609 100.223 C 632.436 92.607 622.681 88.037 611.325 88.033 C 474.666 87.982 338.008 87.993 201.349 88.042 C 198.281 88.043 195.175 88.463 192.151 89.031 C 172.335 92.759 157.841 112.421 157.858 131.138 C 158.074 365.791 157.995 600.444 158.041 835.098 C 158.042 839.005 158.554 842.925 159.016 846.817 C 161.142 864.695 181.106 881.01 199.016 881.007 C 294.844 880.992 390.672 881 487.5 881 M 841.035 489.286 C 835.995 477.734 831.702 465.78 825.736 454.728 C 817.245 438.997 806.452 424.631 794.025 411.79 C 784.666 402.121 774.695 392.833 763.959 384.754 C 745.129 370.586 724.327 359.88 701.866 352.288 C 678.31 344.326 654.262 340.286 629.448 341.051 C 617.106 341.431 604.619 341.326 592.488 343.262 C 576.217 345.858 560.346 350.504 545.018 356.906 C 526.068 364.821 508.419 374.715 492.047 387.232 C 475.455 399.917 461.021 414.663 448.571 431.18 C 434.289 450.129 423.592 471.166 415.971 493.755 C 410.093 511.176 406.251 529.046 405.222 547.292 C 404.441 561.145 405.587 575.115 406.021 589.028 C 406.423 601.906 409.582 614.265 412.898 626.662 C 417.522 643.948 424.289 660.37 433.191 675.716 C 439.889 687.265 448.39 697.776 456.19 708.676 C 466.929 723.682 480.89 735.552 495.38 746.535 C 514.161 760.771 535.096 771.329 557.508 778.937 C 575.074 784.9 593.105 789.027 611.514 789.724 C 628.297 790.359 645.177 788.84 661.998 787.954 C 679.255 787.045 695.484 781.218 711.444 775.471 C 723.406 771.164 734.3 763.909 745.74 758.107 C 746.972 757.483 749.461 757.115 750.036 757.779 C 754.014 762.378 799.469 809.731 803.409 814.798 C 801.846 816.184 797.41 825.479 802.673 831.906 C 812.125 843.449 775.596 816.899 785.55 828.025 C 795.32 838.944 805.157 849.805 815.108 860.559 C 829.357 875.958 843.44 891.525 858.156 906.468 C 868.863 917.339 882.269 921.432 897.397 917.945 C 909.707 915.108 919.487 908.016 924.541 896.581 C 931.694 880.401 928.521 865.108 916.534 852.104 C 900.622 834.843 884.413 817.855 868.282 800.797 C 855.402 787.175 848.815 813.239 835.98 799.576 C 830.585 793.833 822.189 778.668 817.011 772.724 C 812.829 767.922 802.469 755.057 796.322 760.262 C 794.541 761.771 792.426 742.552 790.645 743.727 C 787.358 739.86 784.225 736.172 781.506 732.973 C 791.26 721.876 801.541 711.538 810.222 699.995 C 824.387 681.161 835.196 660.402 842.691 637.902 C 847.451 623.614 851.267 609.123 852.817 594.223 C 854.047 582.399 854.037 570.403 853.887 558.492 C 853.759 548.319 853.643 537.966 851.725 528.04 C 849.239 515.173 844.971 502.65 841.035 489.286 M 414.5 215 C 366.202 215 317.903 214.921 269.606 215.164 C 266.078 215.182 261.025 216.502 259.338 219.007 C 254.824 225.703 252.322 233.411 254.968 241.878 C 256.639 247.223 262.563 252.982 267.227 252.984 C 332.347 253.008 397.466 253.021 462.586 252.904 C 464.656 252.9 467.088 251.94 468.732 250.641 C 477.602 243.639 478.321 235.032 475.464 226.055 C 473.199 218.939 466.991 215 459.468 215 C 444.812 215 430.156 215 414.5 215 M 373.5 308 C 339.007 308 304.515 307.986 270.022 308.039 C 268.122 308.041 266.206 308.518 264.328 308.919 C 257.161 310.447 252.074 324.729 254.521 332.093 C 257.595 341.344 262.273 345.977 269.523 345.982 C 326.845 346.015 384.166 346.046 441.486 345.861 C 444.255 345.852 447.364 344.307 449.72 342.637 C 457.193 337.34 457.105 329.139 455.597 321.616 C 454.113 314.21 449.464 307.418 438.479 307.789 C 417.175 308.51 395.829 308 373.5 308 M 367.5 719 C 335.183 719 302.865 718.971 270.548 719.064 C 268.363 719.07 266.092 719.751 264.013 720.525 C 257.447 722.97 255.3 728.858 254.174 734.857 C 252.282 744.938 259.704 758.499 272.576 758.281 C 316.042 757.544 359.528 758.004 403.007 757.983 C 404.641 757.983 406.343 757.989 407.897 757.565 C 418.988 754.535 423.07 742.357 420.366 732.929 C 417.545 723.097 413.382 718.534 401.481 718.924 C 390.498 719.283 379.495 719 367.5 719 M 361.497 400 C 331.676 400 301.855 400.143 272.036 399.924 C 261.289 399.845 259.697 402.237 255.544 411.104 C 250.941 420.93 255.956 438.002 270.51 438.001 C 304.163 437.998 337.816 438.125 371.466 437.822 C 375.167 437.788 379.343 435.995 382.435 433.801 C 389.306 428.929 390.853 417.781 386.783 409.438 C 383.688 403.093 379.092 399.2 371.486 399.952 C 368.516 400.246 365.493 400 361.497 400 M 270.757 629 C 267.99 629.684 264.602 629.579 262.562 631.186 C 252.658 638.988 251.788 650.022 257.326 660.347 C 259.852 665.056 264.443 668.105 270.661 668.073 C 302.309 667.914 333.959 668.019 365.608 667.954 C 367.498 667.95 369.55 667.636 371.248 666.858 C 379.419 663.114 383.925 652.877 381.662 644.105 C 379.105 634.196 373.7 628.646 361.649 628.84 C 331.674 629.325 301.685 629 270.757 629 M 257.409 544.073 C 256.396 546.749 255.042 549.35 254.432 552.114 C 252.224 562.116 258.223 576.398 272.292 576.141 C 298.936 575.654 325.596 576.032 352.249 575.978 C 359.186 575.964 364.425 573.297 367.854 566.738 C 370.495 561.687 370.735 556.388 369.769 551.425 C 368.422 544.511 364.26 537.545 354.394 537.77 C 325.757 538.42 297.095 538.027 268.443 537.972 C 263.866 537.963 260.247 539.393 257.409 544.073 Z"/>
    <path fill="#FFFFFF" opacity="1.000000" stroke="none" d=" M487.000000,881.000000 C390.672150,881.000000 294.844299,880.992188 199.016464,881.007019 C181.105576,881.009827 161.141541,864.695435 159.016296,846.816528 C158.553680,842.924866 158.042252,839.004700 158.041489,835.097534 C157.995178,600.444336 158.074432,365.791016 157.858322,131.137985 C157.841080,112.420570 172.334824,92.758659 192.151428,89.031395 C195.174911,88.462715 198.280807,88.042786 201.348770,88.041702 C338.007599,87.993484 474.666412,87.982056 611.325256,88.032875 C622.681091,88.037102 632.435913,92.607445 640.608948,100.222961 C648.163879,107.262512 655.313293,114.740349 662.576111,122.089600 C687.652466,147.464264 712.690491,172.876831 737.765564,198.252808 C744.612549,205.181900 751.601990,211.970947 758.406677,218.940811 C763.484680,224.142059 768.429932,229.476837 773.326477,234.850479 C778.772827,240.827469 784.477600,246.624771 789.375732,253.031082 C795.207825,260.659088 797.219910,269.991333 797.848755,279.306732 C798.520508,289.257843 798.000000,299.289429 798.000000,309.688477 C796.701660,309.794708 795.447327,309.986786 794.192993,309.987152 C740.196106,310.002106 686.198181,310.168121 632.203125,309.855865 C621.607178,309.794617 612.395813,304.797913 604.332581,297.859741 C593.953613,288.928986 587.924561,277.561859 585.172791,264.318146 C584.873596,262.877930 585.006165,261.339661 585.005859,259.846893 C584.998352,223.015671 585.000000,186.184464 585.000000,149.353241 C585.000000,147.718521 585.000000,146.083786 585.000000,144.000000 C582.900818,144.000000 581.121094,144.000000 579.341370,144.000000 C460.514832,144.000000 341.688293,144.000015 222.861771,143.999954 C219.552429,143.999954 216.215012,143.724442 212.939957,144.059326 C207.186523,144.647659 204.324493,147.892441 204.008102,153.614578 C203.952988,154.611481 204.000000,155.614029 204.000000,156.613968 C203.999985,376.601379 203.999878,596.588745 204.000381,816.576172 C204.000412,826.710510 207.268997,829.999512 217.344193,829.999573 C384.334625,830.000305 551.325073,830.012085 718.315491,829.944824 C723.610718,829.942688 727.604309,830.657288 731.372742,835.459961 C737.012390,842.647278 744.218445,848.593750 750.642273,855.181091 C755.716431,860.384399 760.602661,865.770691 765.599609,871.049866 C767.756348,873.328430 767.668518,874.796204 764.502197,876.131653 C758.068726,878.845093 751.699585,881.088074 744.481628,881.077881 C658.821228,880.957031 573.160583,881.000000 487.000000,881.000000 z"/>
    <path fill="#FFFFFF" opacity="1.000000" stroke="none" d="M 841.253 489.632 C 844.971 502.65 849.239 515.173 851.725 528.04 C 853.643 537.966 853.759 548.319 853.887 558.492 C 854.037 570.403 854.047 582.399 852.817 594.223 C 851.267 609.123 847.451 623.614 842.691 637.902 C 835.196 660.402 824.387 681.161 810.222 699.995 C 801.541 711.538 791.26 721.876 781.506 732.973 C 784.225 736.172 822.067 777.399 825.353 781.266 C 827.134 780.091 831.494 776.186 833.275 774.678 C 839.422 769.472 841.887 772.713 847.282 778.456 C 860.117 792.119 855.402 787.175 868.282 800.797 C 884.413 817.855 900.622 834.843 916.534 852.104 C 928.521 865.108 931.694 880.401 924.541 896.581 C 919.487 908.016 909.707 915.108 897.397 917.945 C 882.269 921.432 868.863 917.339 858.156 906.468 C 843.44 891.525 829.357 875.958 815.108 860.559 C 805.157 849.805 796.33 841.191 786.518 830.31 C 778.456 821.369 781.837 820.539 785.214 817.176 C 789.486 812.922 792.687 809.058 794.25 807.672 C 790.31 802.605 754.014 762.378 750.036 757.779 C 749.461 757.115 746.972 757.483 745.74 758.107 C 734.3 763.909 723.406 771.164 711.444 775.471 C 695.484 781.218 679.255 787.045 661.998 787.954 C 645.177 788.84 628.297 790.359 611.514 789.724 C 593.105 789.027 575.074 784.9 557.508 778.937 C 535.096 771.329 514.161 760.771 495.38 746.535 C 480.89 735.552 466.929 723.682 456.19 708.676 C 448.39 697.776 439.889 687.265 433.191 675.716 C 424.289 660.37 417.522 643.948 412.898 626.662 C 409.582 614.265 406.423 601.906 406.021 589.028 C 405.587 575.115 404.441 561.145 405.222 547.292 C 406.251 529.046 410.093 511.176 415.971 493.755 C 423.592 471.166 434.289 450.129 448.571 431.18 C 461.021 414.663 475.455 399.917 492.047 387.232 C 508.419 374.715 526.068 364.821 545.018 356.906 C 560.346 350.504 576.217 345.858 592.488 343.262 C 604.619 341.326 617.106 341.431 629.448 341.051 C 654.262 340.286 678.31 344.326 701.866 352.288 C 724.327 359.88 745.129 370.586 763.959 384.754 C 774.695 392.833 784.666 402.121 794.025 411.79 C 806.452 424.631 817.245 438.997 825.736 454.728 C 831.702 465.78 835.995 477.734 841.253 489.632 M 510.005 449.493 C 497.708 461.327 487.696 474.924 479.637 489.898 C 465.333 516.474 458.439 544.74 459.832 575.116 C 460.411 587.743 461.916 600.05 464.932 612.298 C 473.105 645.494 489.659 673.45 515.43 696.104 C 528.05 707.197 541.844 716.103 557.085 723.069 C 575.579 731.522 595.203 735.325 615.191 736.82 C 633.061 738.156 650.87 736.024 668.373 731.987 C 696.58 725.482 721.548 712.53 743.083 693.282 C 755.073 682.566 765.138 670.172 773.453 656.244 C 787.568 632.6 795.201 606.957 796.71 579.754 C 797.412 567.103 795.54 554.211 793.891 541.551 C 790.925 518.781 781.227 498.485 768.852 479.468 C 759.262 464.731 747.354 452.068 733.636 440.923 C 720.493 430.246 706.277 421.396 690.608 415.446 C 665.023 405.729 638.447 402.02 610.992 404.89 C 596.766 406.377 583.023 409.245 569.415 413.713 C 547.03 421.063 527.679 433.119 510.005 449.493 Z"/>
    <path fill="#FFFFFF" opacity="1.000000" stroke="none" d=" M415.000000,215.000000 C430.156067,215.000000 444.812134,214.999985 459.468201,215.000000 C466.990753,215.000015 473.198944,218.939392 475.464050,226.055405 C478.321442,235.032196 477.602142,243.638779 468.732391,250.641235 C467.087830,251.939590 464.656036,252.900345 462.585571,252.904068 C397.466217,253.020996 332.346649,253.007767 267.227081,252.983582 C262.563171,252.981842 256.638550,247.223022 254.968079,241.877960 C252.322021,233.411179 254.824234,225.703323 259.337524,219.006653 C261.025482,216.502090 266.078003,215.181824 269.605774,215.164047 C317.902893,214.920609 366.201660,215.000000 415.000000,215.000000 z"/>
    <path fill="#FFFFFF" opacity="1.000000" stroke="none" d=" M374.000000,308.000000 C395.828796,308.000000 417.174866,308.509796 438.479279,307.789276 C449.464050,307.417755 454.112885,314.210083 455.597290,321.616119 C457.105164,329.139282 457.192688,337.339722 449.719513,342.636963 C447.364136,344.306519 444.255493,345.852112 441.486481,345.861023 C384.165924,346.045563 326.844635,346.014771 269.523468,345.981506 C262.272797,345.977295 257.594788,341.343903 254.520676,332.092834 C252.073563,324.728668 257.160583,310.446686 264.327606,308.918518 C266.205658,308.518066 268.122406,308.041443 270.022064,308.038513 C304.514648,307.985687 339.007324,308.000000 374.000000,308.000000 z"/>
    <path fill="#FFFFFF" opacity="1.000000" stroke="none" d=" M368.000000,719.000000 C379.494537,719.000000 390.498352,719.282776 401.481140,718.923523 C413.381775,718.534302 417.544983,723.097107 420.365540,732.928833 C423.070221,742.356628 418.987579,754.535034 407.896973,757.564819 C406.343292,757.989319 404.640656,757.982605 403.006897,757.983398 C359.528473,758.004333 316.042267,757.543518 272.576355,758.280762 C259.703552,758.499146 252.282455,744.938416 254.174484,734.856689 C255.300201,728.858154 257.447479,722.969910 264.013000,720.525024 C266.092316,719.750671 268.363068,719.069824 270.548279,719.063599 C302.865295,718.971375 335.182709,719.000000 368.000000,719.000000 z"/>
    <path fill="#FFFFFF" opacity="1.000000" stroke="none" d=" M361.995819,400.000000 C365.493469,400.000000 368.516449,400.245544 371.486145,399.951965 C379.091614,399.200104 383.687927,403.092621 386.783142,409.437653 C390.853149,417.781006 389.305603,428.928558 382.435455,433.801300 C379.342590,435.994904 375.167419,437.788483 371.465790,437.821899 C337.816223,438.125458 304.162811,437.998352 270.510498,438.000763 C255.955734,438.001801 250.941177,420.930176 255.543808,411.104095 C259.697357,402.236847 261.288849,399.844788 272.035553,399.923889 C301.854553,400.143372 331.676270,400.000000 361.995819,400.000000 z"/>
    <path fill="#FFFFFF" opacity="1.000000" stroke="none" d=" M271.229309,629.000000 C301.685333,629.000000 331.673889,629.325134 361.649353,628.840454 C373.699615,628.645691 379.105072,634.195801 381.661713,644.105225 C383.924744,652.876709 379.418732,663.114136 371.247742,666.858398 C369.549896,667.636414 367.497711,667.949951 365.607727,667.953796 C333.958801,668.018555 302.309296,667.914246 270.661041,668.073425 C264.443054,668.104675 259.851990,665.055969 257.326416,660.347473 C251.788132,650.022217 252.658234,638.988220 262.562225,631.186035 C264.601868,629.579163 267.990021,629.684082 271.229309,629.000000 z"/>
    <path fill="#FFFFFF" opacity="1.000000" stroke="none" d=" M257.692200,543.806213 C260.247223,539.392639 263.866119,537.963135 268.443237,537.971985 C297.095245,538.027405 325.756989,538.419922 354.394318,537.769531 C364.260254,537.545471 368.421722,544.511108 369.768585,551.425110 C370.735352,556.388062 370.495117,561.687439 367.854340,566.738342 C364.425385,573.296875 359.186096,575.963928 352.248871,575.978027 C325.595825,576.032227 298.936279,575.653564 272.292053,576.140930 C258.222656,576.398254 252.224365,562.116394 254.432175,552.114441 C255.042480,549.349609 256.396454,546.748962 257.692200,543.806213 z"/>
    <path fill="#FFFFFF" opacity="1.000000" stroke="none" d=" M494.005127,547.627014 C498.542236,535.638611 507.708923,533.027100 516.013977,535.958374 C521.955139,538.055359 526.882141,544.545166 526.966797,550.964417 C527.094116,560.610596 527.101501,570.261108 526.968323,579.907104 C526.859131,587.812073 517.605591,596.599915 509.774658,595.920898 C500.952393,595.155823 493.985352,588.353577 493.996826,579.503296 C494.010376,569.023743 494.000366,558.544128 494.005127,547.627014 z"/>
    <path fill="#734ee4" opacity="1.000000" stroke="none" d=" M510.256714,449.243866 C527.679077,433.119354 547.030273,421.062958 569.415222,413.713043 C583.023376,409.244934 596.766296,406.377289 610.992432,404.890137 C638.447327,402.020081 665.023132,405.729340 690.608276,415.445587 C706.276794,421.395874 720.493164,430.245636 733.635559,440.922943 C747.353943,452.068237 759.262329,464.731384 768.852234,479.468109 C781.227478,498.484955 790.924683,518.780823 793.890991,541.551147 C795.540222,554.210815 797.411560,567.103333 796.709778,579.753662 C795.200562,606.957397 787.567505,632.600403 773.452698,656.244019 C765.137634,670.172424 755.073120,682.566101 743.083191,693.282349 C721.547607,712.530151 696.580444,725.481567 668.372559,731.987488 C650.870483,736.024231 633.060974,738.156006 615.190674,736.819641 C595.202515,735.324829 575.578857,731.522339 557.084656,723.068787 C541.844360,716.102661 528.050232,707.196960 515.430115,696.103516 C489.658630,673.449768 473.104858,645.494263 464.931824,612.297913 C461.916351,600.049988 460.410980,587.742920 459.831909,575.116333 C458.438751,544.740051 465.333038,516.474426 479.637238,489.897522 C487.696259,474.924103 497.708405,461.327393 510.256714,449.243866 M647.000000,488.502869 C647.000000,484.672791 647.002319,480.842743 646.999573,477.012665 C646.993103,468.030853 640.183655,461.691071 631.588928,460.825806 C621.863953,459.846771 613.895752,469.123840 613.916016,476.979004 C614.069519,536.594299 614.061401,596.210266 613.929932,655.825623 C613.911499,664.190979 621.541748,673.085632 630.978333,672.939880 C638.068848,672.830505 647.183350,666.410583 647.130310,655.858887 C646.851868,600.407715 647.000000,544.954407 647.000000,488.502869 M581.215698,624.244629 C581.477112,623.008179 581.965576,621.772034 581.966980,620.535278 C582.007812,584.587463 582.009644,548.639648 581.963684,512.691833 C581.961914,511.292114 581.638977,509.806213 581.106567,508.507751 C577.544373,499.819611 570.022400,496.747742 563.187378,498.157318 C554.596985,499.928894 549.114685,505.841827 549.066101,515.622131 C548.895691,549.904907 548.969543,584.189087 549.031128,618.472534 C549.041016,623.958435 551.477295,628.647461 555.738525,631.889893 C564.599915,638.632690 576.458252,634.969238 581.215698,624.244629 M710.000000,514.778198 C709.720459,513.042786 709.739563,511.190155 709.111633,509.591614 C705.707520,500.925842 698.081909,497.741974 691.239746,499.152771 C682.512146,500.952423 677.177246,506.731812 677.105530,516.100586 C676.840210,550.757080 676.909790,585.417114 677.057495,620.075012 C677.099365,629.883789 684.959900,636.288513 695.748169,636.000061 C703.268677,635.798950 709.999268,628.101074 709.999573,619.693970 C710.000610,585.035461 710.000000,550.377014 710.000000,514.778198 M736.000000,561.505066 C736.000000,567.502502 736.012878,573.500061 735.997009,579.497437 C735.973450,588.371277 743.004578,595.201111 751.808167,595.919006 C759.662354,596.559448 768.871399,587.737427 768.971558,579.833191 C769.091858,570.338745 769.193420,560.836487 768.940674,551.347229 C768.726501,543.308594 762.270996,534.257385 750.662781,534.812988 C743.682861,535.146973 734.585327,543.843811 735.917969,551.526245 C736.422974,554.437378 736.000000,557.509460 736.000000,561.505066 M494.000580,548.064575 C494.000366,558.544128 494.010376,569.023743 493.996826,579.503296 C493.985352,588.353577 500.952393,595.155823 509.774658,595.920898 C517.605591,596.599915 526.859131,587.812073 526.968323,579.907104 C527.101501,570.261108 527.094116,560.610596 526.966797,550.964417 C526.882141,544.545166 521.955139,538.055359 516.013977,535.958374 C507.708923,533.027100 498.542236,535.638611 494.000580,548.064575 z"/>
    <path fill="#FFFFFF" opacity="1.000000" stroke="none" d=" M647.000000,489.002380 C647.000000,544.954407 646.851868,600.407715 647.130310,655.858887 C647.183350,666.410583 638.068848,672.830505 630.978333,672.939880 C621.541748,673.085632 613.911499,664.190979 613.929932,655.825623 C614.061401,596.210266 614.069519,536.594299 613.916016,476.979004 C613.895752,469.123840 621.863953,459.846771 631.588928,460.825806 C640.183655,461.691071 646.993103,468.030853 646.999573,477.012665 C647.002319,480.842743 647.000000,484.672791 647.000000,489.002380 z"/>
    <path fill="#FFFFFF" opacity="1.000000" stroke="none" d=" M581.108398,624.642212 C576.458252,634.969238 564.599915,638.632690 555.738525,631.889893 C551.477295,628.647461 549.041016,623.958435 549.031128,618.472534 C548.969543,584.189087 548.895691,549.904907 549.066101,515.622131 C549.114685,505.841827 554.596985,499.928894 563.187378,498.157318 C570.022400,496.747742 577.544373,499.819611 581.106567,508.507751 C581.638977,509.806213 581.961914,511.292114 581.963684,512.691833 C582.009644,548.639648 582.007812,584.587463 581.966980,620.535278 C581.965576,621.772034 581.477112,623.008179 581.108398,624.642212 z"/>
    <path fill="#FFFFFF" opacity="1.000000" stroke="none" d=" M710.000000,515.248352 C710.000000,550.377014 710.000610,585.035461 709.999573,619.693970 C709.999268,628.101074 703.268677,635.798950 695.748169,636.000061 C684.959900,636.288513 677.099365,629.883789 677.057495,620.075012 C676.909790,585.417114 676.840210,550.757080 677.105530,516.100586 C677.177246,506.731812 682.512146,500.952423 691.239746,499.152771 C698.081909,497.741974 705.707520,500.925842 709.111633,509.591614 C709.739563,511.190155 709.720459,513.042786 710.000000,515.248352 z"/>
    <path fill="#FFFFFF" opacity="1.000000" stroke="none" d=" M736.000000,561.006592 C736.000000,557.509460 736.422974,554.437378 735.917969,551.526245 C734.585327,543.843811 743.682861,535.146973 750.662781,534.812988 C762.270996,534.257385 768.726501,543.308594 768.940674,551.347229 C769.193420,560.836487 769.091858,570.338745 768.971558,579.833191 C768.871399,587.737427 759.662354,596.559448 751.808167,595.919006 C743.004578,595.201111 735.973450,588.371277 735.997009,579.497437 C736.012878,573.500061 736.000000,567.502502 736.000000,561.006592 z"/>
    <path fill="#FFFFFF" opacity="1.000000" stroke="none" d=" M494.005127,547.627014 C498.542236,535.638611 507.708923,533.027100 516.013977,535.958374 C521.955139,538.055359 526.882141,544.545166 526.966797,550.964417 C527.094116,560.610596 527.101501,570.261108 526.968323,579.907104 C526.859131,587.812073 517.605591,596.599915 509.774658,595.920898 C500.952393,595.155823 493.985352,588.353577 493.996826,579.503296 C494.010376,569.023743 494.000366,558.544128 494.005127,547.627014 z"/>
  </g>
</svg>