<?xml version="1.0" encoding="utf-8"?>
<svg xmlns="http://www.w3.org/2000/svg" viewBox="2.6895 2.8487 493.8285 493.8285" width="493.829px" height="493.829px"><g transform="matrix(0.3541710376739502, 0, 0, 0.3541710376739502, 68.1236572265625, 68.52791595458984)" style="" id="object-2"><title>Circled Icon</title><circle cx="512.408" cy="511.716" r="697.161" fill="#734ee4" opacity="1.000000" style="stroke-width: 1;" id="object-0"/><g id="object-1"><title>Icon</title><path fill="#FFFFFF" opacity="1.000000" stroke="none" d="M 487 881 C 390.672 881 294.844 880.992 199.016 881.007 C 181.106 881.01 161.142 864.695 159.016 846.817 C 158.554 842.925 158.042 839.005 158.041 835.098 C 157.995 600.444 158.074 365.791 157.858 131.138 C 157.841 112.421 172.335 92.759 192.151 89.031 C 195.175 88.463 198.281 88.043 201.349 88.042 C 338.008 87.993 474.666 87.982 611.325 88.033 C 622.681 88.037 632.436 92.607 640.609 100.223 C 648.164 107.263 655.313 114.74 662.576 122.09 C 687.652 147.464 712.69 172.877 737.766 198.253 C 744.613 205.182 751.602 211.971 758.407 218.941 C 763.485 224.142 768.43 229.477 773.326 234.85 C 778.773 240.827 784.478 246.625 789.376 253.031 C 795.208 260.659 797.22 262.592 797.849 271.907 C 798.521 281.858 798 286.767 798 297.166 C 796.702 297.272 795.447 297.464 794.193 297.465 C 740.196 297.48 686.198 297.646 632.203 297.333 C 621.607 297.272 612.396 292.275 604.333 285.337 C 593.954 276.406 587.925 265.039 585.173 251.796 C 584.874 250.355 585.006 248.817 585.006 247.324 C 584.998 210.493 585 186.184 585 149.353 C 585 147.719 585 146.084 585 144 C 582.901 144 581.121 144 579.341 144 C 460.515 144 341.688 144 222.862 144 C 219.552 144 216.215 143.724 212.94 144.059 C 207.187 144.648 204.324 147.892 204.008 153.615 C 203.953 154.611 204 155.614 204 156.614 C 204 376.601 204 596.589 204 816.576 C 204 826.711 207.269 830 217.344 830 C 384.335 830 551.325 830.012 718.315 829.945 C 723.611 829.943 727.604 830.657 731.373 835.46 C 737.012 842.647 744.218 848.594 750.642 855.181 C 755.716 860.384 760.603 865.771 765.6 871.05 C 767.756 873.328 767.669 874.796 764.502 876.132 C 758.069 878.845 751.7 881.088 744.482 881.078 C 658.821 880.957 573.161 881 487 881 Z"><title>Doc Border</title></path><path fill="#FFFFFF" opacity="1.000000" stroke="none" d="M 841.253 489.632 C 844.971 502.65 849.239 515.173 851.725 528.04 C 853.643 537.966 853.759 548.319 853.887 558.492 C 854.037 570.403 854.047 582.399 852.817 594.223 C 851.267 609.123 847.451 623.614 842.691 637.902 C 835.196 660.402 824.387 681.161 810.222 699.995 C 801.541 711.538 787.45 725.032 777.696 736.129 C 780.415 739.328 817.71 780.311 820.996 784.178 C 822.777 783.003 825.586 780.89 827.367 779.382 C 833.514 774.176 843.464 774.495 848.859 780.238 C 861.694 793.901 855.402 787.175 868.282 800.797 C 884.413 817.855 900.622 834.843 916.534 852.104 C 928.521 865.108 931.694 880.401 924.541 896.581 C 919.487 908.016 909.707 915.108 897.397 917.945 C 882.269 921.432 868.863 917.339 858.156 906.468 C 843.44 891.525 829.357 875.958 815.108 860.559 C 805.157 849.805 799.491 843.771 789.679 832.89 C 781.617 823.949 788.618 814.245 790.662 811.868 C 794.749 807.116 792.687 809.058 794.25 807.672 C 790.31 802.605 754.014 762.378 750.036 757.779 C 749.461 757.115 746.972 757.483 745.74 758.107 C 734.3 763.909 723.406 771.164 711.444 775.471 C 695.484 781.218 679.255 787.045 661.998 787.954 C 645.177 788.84 628.297 790.359 611.514 789.724 C 593.105 789.027 575.074 784.9 557.508 778.937 C 535.096 771.329 514.161 760.771 495.38 746.535 C 480.89 735.552 466.929 723.682 456.19 708.676 C 448.39 697.776 439.889 687.265 433.191 675.716 C 424.289 660.37 417.522 643.948 412.898 626.662 C 409.582 614.265 406.423 601.906 406.021 589.028 C 405.587 575.115 404.441 561.145 405.222 547.292 C 406.251 529.046 410.093 511.176 415.971 493.755 C 423.592 471.166 434.289 450.129 448.571 431.18 C 461.021 414.663 475.455 399.917 492.047 387.232 C 508.419 374.715 526.068 364.821 545.018 356.906 C 560.346 350.504 576.217 345.858 592.488 343.262 C 604.619 341.326 617.106 341.431 629.448 341.051 C 654.262 340.286 678.31 344.326 701.866 352.288 C 724.327 359.88 745.129 370.586 763.959 384.754 C 774.695 392.833 784.666 402.121 794.025 411.79 C 806.452 424.631 817.245 438.997 825.736 454.728 C 831.702 465.78 835.995 477.734 841.253 489.632 M 510.005 449.493 C 497.708 461.327 487.696 474.924 479.637 489.898 C 465.333 516.474 458.439 544.74 459.832 575.116 C 460.411 587.743 461.916 600.05 464.932 612.298 C 473.105 645.494 489.659 673.45 515.43 696.104 C 528.05 707.197 541.844 716.103 557.085 723.069 C 575.579 731.522 595.203 735.325 615.191 736.82 C 633.061 738.156 650.87 736.024 668.373 731.987 C 696.58 725.482 721.548 712.53 743.083 693.282 C 755.073 682.566 765.138 670.172 773.453 656.244 C 787.568 632.6 795.201 606.957 796.71 579.754 C 797.412 567.103 795.54 554.211 793.891 541.551 C 790.925 518.781 781.227 498.485 768.852 479.468 C 759.262 464.731 747.354 452.068 733.636 440.923 C 720.493 430.246 706.277 421.396 690.608 415.446 C 665.023 405.729 638.447 402.02 610.992 404.89 C 596.766 406.377 583.023 409.245 569.415 413.713 C 547.03 421.063 527.679 433.119 510.005 449.493 Z"><title>Magnifying Glass</title></path><g><title>Audio Waveform</title><path fill="#FFFFFF" opacity="1.000000" stroke="none" d="M 630.199 689.734 C 628.574 689.734 629.05 689.683 627.789 689.645 C 616.039 689.289 615.542 677.394 615.542 672.685 C 615.542 641.833 615.57 497.788 615.57 466.936 C 615.57 461.534 616.847 451.404 627.59 451.514 C 628.701 451.525 628.653 451.483 629.812 451.529 C 638.862 451.899 640.87 462.045 640.87 466.621 C 640.87 498.971 640.984 640.247 640.984 672.596 C 640.984 676.623 640.525 689.734 630.199 689.734 Z" style="stroke-width: 1;"/><path fill="#FFFFFF" opacity="1.000000" stroke="none" d="M 571.271 652.08 C 569.646 652.08 570.123 652.029 568.86 651.989 C 557.11 651.621 556.614 639.343 556.614 634.484 C 556.614 602.639 556.641 537.044 556.641 505.201 C 556.641 499.624 557.919 489.169 568.662 489.282 C 569.774 489.294 569.726 489.25 570.885 489.298 C 579.935 489.679 581.942 500.151 581.942 504.874 C 581.942 538.267 582.056 601.002 582.056 634.392 C 582.056 638.549 581.598 652.08 571.271 652.08 Z" style="stroke-width: 1;"/><path fill="#FFFFFF" opacity="1.000000" stroke="none" d="M 513.6 603.357 C 511.975 603.357 512.451 603.315 511.189 603.282 C 499.439 602.972 498.943 592.637 498.943 588.545 C 498.943 561.742 498.97 579.432 498.97 552.625 C 498.97 547.933 500.247 539.131 510.991 539.226 C 512.103 539.236 512.054 539.199 513.213 539.24 C 522.263 539.561 524.271 548.376 524.271 552.352 C 524.271 580.459 524.385 560.363 524.385 588.469 C 524.385 591.969 523.926 603.357 513.6 603.357 Z" style="stroke-width: 1;"/><path fill="#FFFFFF" opacity="1.000000" stroke="none" d="M 689.13 651.976 C 687.505 651.976 687.981 651.924 686.719 651.887 C 674.969 651.517 674.473 639.239 674.473 634.378 C 674.473 602.531 674.5 536.934 674.5 505.089 C 674.5 499.511 675.777 489.055 686.521 489.168 C 687.633 489.18 687.584 489.135 688.743 489.184 C 697.793 489.566 699.801 500.04 699.801 504.763 C 699.801 538.155 699.915 600.894 699.915 634.287 C 699.915 638.445 699.456 651.976 689.13 651.976 Z" style="stroke-width: 1; transform-box: fill-box; transform-origin: 50% 50%;" transform="matrix(-1, 0, 0, -1, 0.000028, -0.000058)"/><path fill="#FFFFFF" opacity="1.000000" stroke="none" d="M 747.087 603.882 C 745.461 603.882 745.939 603.838 744.676 603.804 C 732.926 603.491 732.43 593.036 732.43 588.898 C 732.43 561.783 732.457 579.677 732.457 552.563 C 732.457 547.813 733.735 538.91 744.478 539.006 C 745.59 539.017 745.542 538.979 746.7 539.021 C 755.751 539.347 757.758 548.262 757.758 552.284 C 757.758 580.717 757.872 560.388 757.872 588.819 C 757.872 592.36 757.414 603.882 747.087 603.882 Z" style="stroke-width: 1; transform-box: fill-box; transform-origin: 50% 50%;" transform="matrix(-1, 0, 0, -1, 0.000049, -0.000025)"/></g><g><title>Doc Lines</title><path fill="#FFFFFF" opacity="1.000000" stroke="none" d="M 376.161 329.83 C 374.367 329.83 374.893 329.78 373.5 329.743 C 360.53 329.389 362.538 317.588 362.538 312.916 C 362.538 282.307 362.568 131.497 362.568 100.889 C 362.568 95.529 361.422 85.479 373.281 85.588 C 374.508 85.599 374.455 85.557 375.734 85.603 C 385.724 85.97 387.94 96.036 387.94 100.576 C 387.94 132.671 388.066 280.734 388.066 312.828 C 388.066 316.824 387.56 329.83 376.161 329.83 Z" style="stroke-width: 1; transform-box: fill-box; transform-origin: 50% 50%;" transform="matrix(0, 1, -1, 0, -0.000004, 0.000047)"/><path fill="#FFFFFF" opacity="1.000000" stroke="none" d="M 376.076 423.825 C 374.282 423.825 374.808 423.775 373.415 423.738 C 360.445 423.384 362.453 411.583 362.453 406.911 C 362.453 376.302 362.483 225.423 362.483 194.815 C 362.483 189.455 361.337 179.405 373.196 179.514 C 374.423 179.525 374.37 179.483 375.649 179.529 C 385.639 179.896 387.855 189.962 387.855 194.502 C 387.855 226.597 387.981 374.729 387.981 406.823 C 387.981 410.819 387.475 423.825 376.076 423.825 Z" style="stroke-width: 1; transform-box: fill-box; transform-origin: 50% 50%;" transform="matrix(0, 1, -1, 0, -0.000026, 0.000043)"/><path fill="#FFFFFF" opacity="1.000000" stroke="none" d="M 363.172 505.977 C 361.378 505.977 361.904 505.927 360.511 505.89 C 347.541 505.536 349.549 493.735 349.549 489.063 C 349.549 458.454 349.579 405.131 349.579 374.523 C 349.579 369.163 348.433 359.113 360.292 359.222 C 361.519 359.233 361.466 359.191 362.745 359.237 C 372.735 359.604 374.951 369.67 374.951 374.21 C 374.951 406.305 375.077 456.881 375.077 488.975 C 375.077 492.971 374.571 505.977 363.172 505.977 Z" style="stroke-width: 1; transform-origin: 363.591px 395.148px;" transform="matrix(0, 1, -1, 0, -0.000003, -0.000021)"/><path fill="#FFFFFF" opacity="1.000000" stroke="none" d="M 364.005 598.951 C 362.211 598.951 362.737 598.901 361.344 598.864 C 348.374 598.51 350.382 586.709 350.382 582.037 C 350.382 551.428 350.412 538.693 350.412 508.085 C 350.412 502.725 349.266 492.675 361.125 492.784 C 362.352 492.795 362.299 492.753 363.578 492.799 C 373.568 493.166 375.784 503.232 375.784 507.772 C 375.784 539.867 375.91 549.855 375.91 581.949 C 375.91 585.945 375.404 598.951 364.005 598.951 Z" style="stroke-width: 1; transform-origin: 364.424px 487.578px;" transform="matrix(0, 1, -1, 0, -0.00001, -0.000026)"/><path fill="#FFFFFF" opacity="1.000000" stroke="none" d="M 363.852 692.186 C 362.058 692.186 362.584 692.136 361.191 692.099 C 348.221 691.745 350.229 679.944 350.229 675.272 C 350.229 644.663 350.259 638.151 350.259 607.543 C 350.259 602.183 349.113 592.133 360.972 592.242 C 362.199 592.253 362.146 592.211 363.425 592.257 C 373.415 592.624 375.631 602.69 375.631 607.23 C 375.631 639.325 375.757 643.09 375.757 675.184 C 375.757 679.18 375.251 692.186 363.852 692.186 Z" style="stroke-width: 1; transform-origin: 364.271px 580.853px;" transform="matrix(0, 1, -1, 0, -0.000006, -0.00005)"/><path fill="#FFFFFF" opacity="1.000000" stroke="none" d="M 343.388 853.095 C 341.594 853.095 342.12 853.045 340.727 853.008 C 327.757 852.654 329.765 840.853 329.765 836.181 C 329.765 805.572 329.795 720.108 329.795 689.5 C 329.795 684.14 328.649 674.09 340.508 674.199 C 341.735 674.21 341.682 674.168 342.961 674.214 C 352.951 674.581 355.167 684.647 355.167 689.187 C 355.167 721.282 355.293 803.999 355.293 836.093 C 355.293 840.089 354.787 853.095 343.388 853.095 Z" style="stroke-width: 1; transform-box: fill-box; transform-origin: 50% 50%;" transform="matrix(0, 1, -1, 0, 0.000028, 0.000123)"/><path fill="#FFFFFF" opacity="1.000000" stroke="none" d="M 314.424 732.957 C 312.63 732.957 313.156 732.907 311.763 732.87 C 298.793 732.516 300.801 720.715 300.801 716.043 C 300.801 685.434 300.831 657.836 300.831 627.228 C 300.831 621.868 299.685 611.818 311.544 611.927 C 312.771 611.938 312.718 611.896 313.997 611.942 C 323.987 612.309 326.203 622.375 326.203 626.915 C 326.203 659.01 326.329 683.861 326.329 715.955 C 326.329 719.951 325.823 732.957 314.424 732.957 Z" style="stroke-width: 1; transform-box: fill-box; transform-origin: 50% 50%;" transform="matrix(0, 1, -1, 0, -0.000023, -0.000018)"/></g></g></g></svg>