<svg version="1.1" id="Layer_1" xmlns="http://www.w3.org/2000/svg" xmlns:xlink="http://www.w3.org/1999/xlink" x="0px" y="0px"
	 width="100%" viewBox="0 0 1000 1000" enable-background="new 0 0 1000 1000" xml:space="preserve">
<path fill="#126CBA" opacity="1.000000" stroke="none" 
	d="
M784.000000,1001.000000 
	C523.027527,1001.000000 262.055115,1001.000000 1.041327,1001.000000 
	C1.041327,667.729431 1.041327,334.458801 1.041327,1.094107 
	C334.235382,1.094107 667.470825,1.094107 1000.853149,1.094107 
	C1000.853149,334.333282 1000.853149,667.666626 1000.853149,1001.000000 
	C948.238220,1001.000000 895.577087,1001.000000 842.423218,1000.576538 
	C839.165039,982.191101 836.439758,964.222839 833.622925,946.268921 
	C830.750183,927.958313 827.763245,909.665588 824.869873,891.358154 
	C820.701172,864.980530 816.603760,838.591614 812.417236,812.216858 
	C807.587585,781.790710 802.670349,751.378418 797.836548,720.952881 
	C794.714417,701.300537 791.729980,681.626221 788.582031,661.978088 
	C785.094727,640.211853 781.409851,618.477051 777.958496,596.705261 
	C773.442383,568.216797 769.121826,539.697327 764.620911,511.206482 
	C761.130737,489.113556 757.453369,467.050262 753.932129,444.962189 
	C750.462891,423.199890 747.137573,401.414642 743.654114,379.654694 
	C739.462280,353.469818 735.125793,327.308075 730.937073,301.122681 
	C728.110107,283.449585 725.468872,265.746857 722.673828,248.068573 
	C719.776489,229.743149 716.808594,211.428833 713.841797,193.114487 
	C712.554260,185.166748 711.192200,177.231110 709.907593,169.550491 
	C708.930542,169.319824 708.597107,169.139877 708.297424,169.184845 
	C690.588928,171.841034 672.877319,174.478424 655.192871,177.287231 
	C654.195312,177.445663 653.423950,179.028046 652.210083,179.993301 
	C627.439758,193.691452 602.323669,205.720428 575.351746,213.669800 
	C545.766724,222.389328 515.513000,225.541199 485.015961,222.573120 
	C464.256531,220.552750 443.788544,215.561600 423.173859,211.993561 
	C421.098419,211.634338 418.909454,211.931107 416.292236,211.722473 
	C395.132355,206.537064 374.512115,201.291565 353.761108,196.627914 
	C320.713348,189.200684 287.487152,186.785873 253.716339,192.157532 
	C234.012817,195.291611 215.314743,201.238617 196.883072,208.355164 
	C187.904129,211.821991 178.983871,215.618439 170.496460,220.129959 
	C162.264191,224.505844 161.378891,224.178940 162.118896,231.205978 
	C165.239594,260.840027 168.380783,290.472168 171.629471,320.092377 
	C175.095657,351.695557 178.640549,383.290375 182.263565,414.875946 
	C183.263245,423.591309 184.664200,432.260620 185.735275,441.326569 
	C185.674423,442.223511 185.759354,442.744965 185.716156,443.404419 
	C185.588043,443.542419 185.696640,443.903015 185.459549,444.212311 
	C185.186569,446.656311 184.926117,448.814911 185.150650,450.921875 
	C186.824127,466.625946 188.582230,482.321106 190.335373,498.016632 
	C194.895218,538.839905 199.463654,579.662292 204.034622,620.484314 
	C205.007339,629.171326 206.005478,637.855469 207.100540,647.497253 
	C209.782578,645.942566 211.526520,645.075806 213.118591,643.987061 
	C235.054947,628.985291 258.325775,616.629211 283.518829,607.967285 
	C314.407318,597.347046 346.120117,594.210388 378.501007,597.411316 
	C404.401276,599.971680 429.626099,606.091187 454.801697,612.425781 
	C457.012726,612.982117 459.456177,612.614563 462.168854,612.794067 
	C463.054260,612.803589 463.562469,612.695129 464.220825,612.828491 
	C466.510437,613.603699 468.649933,614.137085 471.152618,614.869629 
	C472.060669,615.068970 472.605530,615.069214 473.615448,615.353516 
	C475.143494,615.882324 476.206451,616.127136 477.168152,616.401855 
	C477.066864,616.431763 476.940552,616.239563 476.940552,616.239563 
	C476.940552,616.239563 477.289551,616.188354 478.130188,616.554443 
	C479.562805,617.072998 480.154785,617.225403 480.679840,617.412109 
	C480.612946,617.446472 480.514404,617.132324 480.819183,617.433594 
	C492.022705,619.980835 502.921478,622.226685 514.206848,624.652710 
	C515.154968,624.800049 515.716431,624.767151 516.576965,624.945435 
	C525.258301,626.342712 533.620972,627.695679 542.026550,628.684387 
	C570.631592,632.049194 599.070312,630.928650 627.159973,624.460571 
	C639.420166,621.637512 651.765686,618.721558 663.556824,614.430908 
	C682.367676,607.585876 701.113586,600.338806 718.147583,589.573853 
	C718.923340,592.382141 719.710632,594.763306 720.099976,597.207825 
	C723.201538,616.680542 726.220093,636.166382 729.278809,655.645935 
	C732.846802,678.368896 736.445068,701.086975 740.001038,723.811829 
	C742.755676,741.415405 745.424561,759.032410 748.206421,776.631653 
	C751.090698,794.878418 754.065247,813.110901 757.000061,831.349670 
	C759.615601,847.603699 762.226379,863.858459 764.847778,880.111511 
	C766.553284,890.686096 768.299622,901.254211 769.982239,911.832458 
	C772.602844,928.306885 775.190979,944.786438 777.781372,961.265686 
	C779.863037,974.509033 781.927734,987.755127 784.000000,1001.000000 
z"/>
<path fill="#F2F2F3" opacity="1.000000" stroke="none" 
	d="
M784.468628,1001.000000 
	C781.927734,987.755127 779.863037,974.509033 777.781372,961.265686 
	C775.190979,944.786438 772.602844,928.306885 769.982239,911.832458 
	C768.299622,901.254211 766.553284,890.686096 764.847778,880.111511 
	C762.226379,863.858459 759.615601,847.603699 757.000061,831.349670 
	C754.065247,813.110901 751.090698,794.878418 748.206421,776.631653 
	C745.424561,759.032410 742.755676,741.415405 740.001038,723.811829 
	C736.445068,701.086975 732.846802,678.368896 729.278809,655.645935 
	C726.220093,636.166382 723.201538,616.680542 720.099976,597.207825 
	C719.710632,594.763306 718.923340,592.382141 718.130371,589.218872 
	C717.732483,586.819885 717.568665,585.166687 717.310181,583.528381 
	C707.847046,523.538513 698.375122,463.549988 688.981079,403.618591 
	C689.057678,403.675903 689.059326,403.443268 689.059326,403.443268 
	C689.059326,403.443268 688.893066,403.557556 688.870972,403.124878 
	C688.611206,401.273682 688.373535,399.855164 688.203857,398.014282 
	C687.096802,389.366425 686.036194,381.122681 684.726013,372.918793 
	C680.138611,344.196899 675.373413,315.503235 670.848450,286.771637 
	C665.547607,253.113892 660.457642,219.422989 655.154480,185.765625 
	C654.835205,183.739685 653.441223,181.883087 652.547302,179.947693 
	C653.423950,179.028046 654.195312,177.445663 655.192871,177.287231 
	C672.877319,174.478424 690.588928,171.841034 708.297424,169.184845 
	C708.597107,169.139877 708.930542,169.319824 709.907593,169.550491 
	C711.192200,177.231110 712.554260,185.166748 713.841797,193.114487 
	C716.808594,211.428833 719.776489,229.743149 722.673828,248.068573 
	C725.468872,265.746857 728.110107,283.449585 730.937073,301.122681 
	C735.125793,327.308075 739.462280,353.469818 743.654114,379.654694 
	C747.137573,401.414642 750.462891,423.199890 753.932129,444.962189 
	C757.453369,467.050262 761.130737,489.113556 764.620911,511.206482 
	C769.121826,539.697327 773.442383,568.216797 777.958496,596.705261 
	C781.409851,618.477051 785.094727,640.211853 788.582031,661.978088 
	C791.729980,681.626221 794.714417,701.300537 797.836548,720.952881 
	C802.670349,751.378418 807.587585,781.790710 812.417236,812.216858 
	C816.603760,838.591614 820.701172,864.980530 824.869873,891.358154 
	C827.763245,909.665588 830.750183,927.958313 833.622925,946.268921 
	C836.439758,964.222839 839.165039,982.191101 841.965210,1000.576538 
	C822.979126,1001.000000 803.958191,1001.000000 784.468628,1001.000000 
z"/>
<path fill="#BE3B3E" opacity="1.000000" stroke="none" 
	d="
M185.881058,440.951080 
	C184.664200,432.260620 183.263245,423.591309 182.263565,414.875946 
	C178.640549,383.290375 175.095657,351.695557 171.629471,320.092377 
	C168.380783,290.472168 165.239594,260.840027 162.118896,231.205978 
	C161.378891,224.178940 162.264191,224.505844 170.496460,220.129959 
	C178.983871,215.618439 187.904129,211.821991 196.883072,208.355164 
	C215.314743,201.238617 234.012817,195.291611 253.716339,192.157532 
	C287.487152,186.785873 320.713348,189.200684 353.761108,196.627914 
	C374.512115,201.291565 395.132355,206.537064 416.314880,211.832748 
	C416.910645,212.461029 416.905151,212.773178 416.532837,213.210297 
	C416.020599,214.732346 415.456116,216.154648 415.583282,217.512146 
	C417.148376,234.218994 418.681671,250.930817 420.493683,267.611969 
	C422.162903,282.978943 424.208313,298.304626 426.000000,313.658783 
	C428.254364,332.977661 430.459137,352.302551 432.607269,371.633545 
	C433.818909,382.537231 434.917267,393.454163 435.975647,404.373901 
	C436.351746,408.254425 435.680817,410.136505 430.690979,408.696777 
	C420.329407,405.707153 409.770813,403.299286 399.180176,401.231171 
	C386.989502,398.850555 374.679626,397.077118 362.415466,395.077179 
	C357.385345,394.256897 352.341339,392.905396 347.300171,392.889557 
	C334.377777,392.848938 321.369110,392.620758 308.553345,393.971313 
	C295.389130,395.358612 282.182434,397.682648 269.420502,401.160553 
	C257.310883,404.460754 245.619461,409.465973 233.995819,414.323639 
	C225.123093,418.031616 216.461121,422.350677 208.043060,427.008179 
	C200.418335,431.226776 193.250397,436.270935 185.881058,440.951080 
z"/>
<path fill="#BF3B3E" opacity="1.000000" stroke="none" 
	d="
M473.150360,615.069458 
	C472.605530,615.069214 472.060669,615.068970 471.181335,614.611450 
	C469.460785,610.688599 466.324036,613.046326 464.121277,611.704712 
	C463.294861,602.666138 462.724152,594.043457 461.688599,585.476929 
	C459.641296,568.540405 457.187561,551.652649 455.182739,534.711487 
	C453.352203,519.243103 451.859802,503.734131 450.277649,488.237000 
	C448.068115,466.594513 445.934265,444.944244 443.720428,423.302185 
	C443.197968,418.195099 444.036621,417.487518 449.057037,418.555115 
	C467.894104,422.560883 486.687805,426.812164 505.614716,430.344666 
	C536.489319,436.107147 567.490051,434.986542 598.429993,430.672455 
	C602.037048,430.169525 605.456604,428.322479 609.131836,427.020264 
	C609.300598,426.941925 609.663940,426.861389 610.014526,426.999146 
	C612.468628,426.955902 614.623047,427.004486 616.666199,426.551392 
	C623.116455,425.120972 629.525024,423.502563 636.128052,422.184326 
	C636.202026,423.278168 636.097534,424.144531 635.971680,424.979797 
	C635.950256,424.948730 636.010681,424.992920 636.011475,425.420227 
	C635.767700,427.818512 635.804382,429.875366 635.233276,431.746674 
	C631.243530,444.819122 627.236328,457.888367 623.016479,470.887756 
	C619.969421,480.274475 617.200073,489.824646 613.208130,498.814026 
	C607.321594,512.069763 600.902649,525.137573 593.884033,537.828369 
	C586.956604,550.354370 579.669800,562.792542 571.328674,574.398071 
	C560.779419,589.076050 548.372192,602.338135 534.325623,613.790649 
	C528.925415,618.193665 522.329224,621.129822 516.277954,624.734314 
	C515.716431,624.767151 515.154968,624.800049 514.009033,624.410889 
	C507.089417,622.246704 500.807404,620.264771 494.400940,618.844177 
	C489.936005,617.854126 485.300415,617.633667 480.459534,616.867371 
	C479.260742,616.459473 478.343475,616.253662 477.459778,616.095581 
	C477.493347,616.143311 477.412811,616.227905 477.239746,615.944214 
	C475.905853,614.505493 474.923065,612.170776 473.150360,615.069458 
z"/>
<path fill="#AC272E" opacity="1.000000" stroke="none" 
	d="
M635.993042,425.010895 
	C636.097534,424.144531 636.202026,423.278168 636.273010,421.892090 
	C636.541016,420.552582 636.842468,419.732788 637.447021,418.738892 
	C645.335327,415.662903 653.033813,413.022064 660.475952,409.790771 
	C669.108948,406.042450 677.516785,401.775635 686.295776,397.790588 
	C687.091370,398.043732 687.613586,398.240173 688.135864,398.436646 
	C688.373535,399.855164 688.611206,401.273682 688.842346,403.142151 
	C688.835754,403.592133 688.904358,403.561279 688.904419,403.561279 
	C698.375122,463.549988 707.847046,523.538513 717.310181,583.528381 
	C717.568665,585.166687 717.732483,586.819885 717.957642,588.821167 
	C701.113586,600.338806 682.367676,607.585876 663.556824,614.430908 
	C651.765686,618.721558 639.420166,621.637512 627.159973,624.460571 
	C599.070312,630.928650 570.631592,632.049194 542.026550,628.684387 
	C533.620972,627.695679 525.258301,626.342712 516.576965,624.945435 
	C522.329224,621.129822 528.925415,618.193665 534.325623,613.790649 
	C548.372192,602.338135 560.779419,589.076050 571.328674,574.398071 
	C579.669800,562.792542 586.956604,550.354370 593.884033,537.828369 
	C600.902649,525.137573 607.321594,512.069763 613.208130,498.814026 
	C617.200073,489.824646 619.969421,480.274475 623.016479,470.887756 
	C627.236328,457.888367 631.243530,444.819122 635.233276,431.746674 
	C635.804382,429.875366 635.767700,427.818512 636.006165,425.423798 
	C636.000000,425.000061 635.993042,425.010895 635.993042,425.010895 
z"/>
<path fill="#E5C14D" opacity="1.000000" stroke="none" 
	d="
M461.791687,612.676147 
	C459.456177,612.614563 457.012726,612.982117 454.801697,612.425781 
	C429.626099,606.091187 404.401276,599.971680 378.501007,597.411316 
	C346.120117,594.210388 314.407318,597.347046 283.518829,607.967285 
	C258.325775,616.629211 235.054947,628.985291 213.118591,643.987061 
	C211.526520,645.075806 209.782578,645.942566 207.100540,647.497253 
	C206.005478,637.855469 205.007339,629.171326 204.034622,620.484314 
	C199.463654,579.662292 194.895218,538.839905 190.335373,498.016632 
	C188.582230,482.321106 186.824127,466.625946 185.150650,450.921875 
	C184.926117,448.814911 185.186569,446.656311 185.606735,444.154541 
	C186.188385,443.671448 186.305908,443.500458 186.676315,443.190582 
	C204.648697,433.494110 221.850952,422.941956 240.026779,414.481293 
	C270.025391,400.517181 302.034485,394.776642 335.111450,395.546631 
	C370.668243,396.374359 404.895813,404.917267 439.112244,414.364380 
	C441.074127,430.461487 443.022583,446.149414 444.788422,461.857880 
	C448.655945,496.261902 452.403290,530.679382 456.255951,565.085022 
	C458.033173,580.956360 459.942352,596.812927 461.791687,612.676147 
M442.109192,460.060120 
	C440.720856,447.335388 439.703857,434.550598 437.663116,421.931396 
	C437.197632,419.053040 433.625122,415.278656 430.745148,414.435394 
	C419.308655,411.086761 407.661743,408.293274 395.938751,406.128265 
	C381.580292,403.476562 367.075165,401.607880 352.619598,399.495544 
	C330.967468,396.331543 309.472687,398.112488 288.094849,401.956848 
	C282.883911,402.893951 277.709747,404.302307 272.694733,406.010742 
	C258.906647,410.707825 244.767212,414.717682 231.603363,420.807709 
	C217.968002,427.115936 205.342773,435.596527 192.212753,443.015472 
	C188.649017,445.029114 187.556778,447.849884 188.008514,451.750305 
	C189.749847,466.784790 191.304474,481.841064 193.075256,496.871979 
	C196.400879,525.101074 199.877716,553.312317 203.194611,581.542358 
	C205.129807,598.012634 206.906052,614.501953 208.684631,630.990112 
	C209.049362,634.371277 209.106079,637.785706 209.341049,641.805603 
	C211.346069,641.050964 212.631210,640.767822 213.707047,640.131042 
	C223.699417,634.216736 233.339539,627.608032 243.699402,622.438171 
	C257.907745,615.347778 272.256500,608.140137 287.265350,603.148315 
	C308.472290,596.095093 330.687531,592.617310 353.098877,593.302856 
	C369.819153,593.814392 386.583221,595.552185 403.137970,598.018127 
	C417.689087,600.185547 432.153687,603.492004 446.325836,607.472534 
	C458.092407,610.777344 459.349091,610.182983 457.674988,598.064697 
	C455.628510,583.251038 453.914276,568.389526 452.206604,553.531494 
	C449.910553,533.554504 447.739136,513.563049 445.551575,493.573761 
	C444.359894,482.684601 443.245392,471.786987 442.109192,460.060120 
z"/>
<path fill="#D7C062" opacity="1.000000" stroke="none" 
	d="
M688.203857,398.014282 
	C687.613586,398.240173 687.091370,398.043732 686.237061,397.544983 
	C685.669495,396.800842 685.433960,396.358948 685.189209,395.496002 
	C682.092834,376.054718 678.994324,357.036346 675.922363,338.013702 
	C673.617310,323.739380 671.369263,309.455811 669.052856,295.183380 
	C667.136963,283.379089 665.158264,271.584961 663.180176,259.381653 
	C659.516357,235.661575 655.810425,212.356598 652.311584,189.020554 
	C651.726257,185.116486 650.993835,183.541656 646.769836,185.767136 
	C637.674194,190.559204 628.578369,195.463959 619.091858,199.374802 
	C604.426331,205.420731 589.621826,211.265930 574.515381,216.059128 
	C564.019165,219.389572 552.917114,220.811020 541.674561,223.135895 
	C537.538391,223.720917 533.813477,224.255371 529.626160,224.836395 
	C525.487244,224.988098 521.810669,225.093201 517.753906,225.173920 
	C515.899780,225.468323 514.425781,225.787094 512.522217,226.079819 
	C488.381775,227.045670 465.064484,224.199158 441.943237,219.110748 
	C434.363586,217.442657 426.653442,216.367447 418.702148,214.981125 
	C418.199921,214.921677 417.998505,214.902206 417.661072,214.662415 
	C417.283997,213.988205 417.042999,213.534302 416.802002,213.080414 
	C416.905151,212.773178 416.910645,212.461029 416.795837,212.033691 
	C418.909454,211.931107 421.098419,211.634338 423.173859,211.993561 
	C443.788544,215.561600 464.256531,220.552750 485.015961,222.573120 
	C515.513000,225.541199 545.766724,222.389328 575.351746,213.669800 
	C602.323669,205.720428 627.439758,193.691452 652.210083,179.993317 
	C653.441223,181.883087 654.835205,183.739685 655.154480,185.765625 
	C660.457642,219.422989 665.547607,253.113892 670.848450,286.771637 
	C675.373413,315.503235 680.138611,344.196899 684.726013,372.918793 
	C686.036194,381.122681 687.096802,389.366425 688.203857,398.014282 
z"/>
<path fill="#B54E1C" opacity="1.000000" stroke="none" 
	d="
M416.532837,213.210297 
	C417.042999,213.534302 417.283997,213.988205 417.642578,215.131989 
	C419.851624,234.618042 421.943085,253.414200 424.042175,272.570892 
	C424.116455,273.889771 424.183167,274.848145 424.229126,276.234924 
	C424.781708,281.785400 425.335938,286.909698 425.931946,292.029144 
	C428.065918,310.359528 430.213989,328.688263 432.337891,347.315247 
	C432.358887,348.007568 432.398712,348.402252 432.396362,349.174500 
	C432.568359,350.778107 432.782501,352.004089 433.012299,353.590698 
	C433.136475,354.906464 433.244995,355.861664 433.315704,357.252136 
	C433.726196,361.971375 434.190094,366.253815 434.620056,370.539612 
	C436.074341,385.034973 437.516602,399.531494 438.977234,414.012390 
	C438.990967,413.997162 439.015961,413.964569 439.015961,413.964569 
	C404.895813,404.917267 370.668243,396.374359 335.111450,395.546631 
	C302.034485,394.776642 270.025391,400.517181 240.026779,414.481293 
	C221.850952,422.941956 204.648697,433.494110 186.551361,443.176422 
	C186.093674,443.246185 185.844269,443.266418 185.844269,443.266418 
	C185.759354,442.744965 185.674423,442.223511 185.735275,441.326569 
	C193.250397,436.270935 200.418335,431.226776 208.043060,427.008179 
	C216.461121,422.350677 225.123093,418.031616 233.995819,414.323639 
	C245.619461,409.465973 257.310883,404.460754 269.420502,401.160553 
	C282.182434,397.682648 295.389130,395.358612 308.553345,393.971313 
	C321.369110,392.620758 334.377777,392.848938 347.300171,392.889557 
	C352.341339,392.905396 357.385345,394.256897 362.415466,395.077179 
	C374.679626,397.077118 386.989502,398.850555 399.180176,401.231171 
	C409.770813,403.299286 420.329407,405.707153 430.690979,408.696777 
	C435.680817,410.136505 436.351746,408.254425 435.975647,404.373901 
	C434.917267,393.454163 433.818909,382.537231 432.607269,371.633545 
	C430.459137,352.302551 428.254364,332.977661 426.000000,313.658783 
	C424.208313,298.304626 422.162903,282.978943 420.493683,267.611969 
	C418.681671,250.930817 417.148376,234.218994 415.583282,217.512146 
	C415.456116,216.154648 416.020599,214.732346 416.532837,213.210297 
z"/>
<path fill="#B54E1C" opacity="1.000000" stroke="none" 
	d="
M462.168854,612.794128 
	C459.942352,596.812927 458.033173,580.956360 456.255951,565.085022 
	C452.403290,530.679382 448.655945,496.261902 444.788422,461.857880 
	C443.022583,446.149414 441.074127,430.461487 439.112244,414.364380 
	C439.015961,413.964569 438.990967,413.997162 439.369843,414.079224 
	C444.826263,415.155396 449.903778,416.149567 454.981445,417.110107 
	C454.981567,417.076508 454.919922,417.103333 455.176147,417.367706 
	C456.038818,417.902313 456.620392,418.277344 457.255219,418.427765 
	C489.057770,425.963074 521.051392,432.422638 553.931519,431.859497 
	C566.025269,431.652344 578.093994,429.986145 590.507935,428.976349 
	C591.499573,428.858612 592.157532,428.750061 593.224304,428.677368 
	C596.497131,428.140839 599.361084,427.568451 602.492676,427.000610 
	C603.113770,426.976044 603.467346,426.946960 604.054810,427.164062 
	C605.846802,427.306335 607.404907,427.202454 608.963013,427.098572 
	C605.456604,428.322479 602.037048,430.169525 598.429993,430.672455 
	C567.490051,434.986542 536.489319,436.107147 505.614716,430.344666 
	C486.687805,426.812164 467.894104,422.560883 449.057037,418.555115 
	C444.036621,417.487518 443.197968,418.195099 443.720428,423.302185 
	C445.934265,444.944244 448.068115,466.594513 450.277649,488.237000 
	C451.859802,503.734131 453.352203,519.243103 455.182739,534.711487 
	C457.187561,551.652649 459.641296,568.540405 461.688599,585.476929 
	C462.724152,594.043457 463.294861,602.666138 464.082550,611.810913 
	C464.089355,612.358337 464.070709,612.586609 464.070709,612.586609 
	C463.562469,612.695129 463.054260,612.803589 462.168854,612.794128 
z"/>
<path fill="#AC272E" opacity="1.000000" stroke="none" 
	d="
M480.741058,617.069397 
	C485.300415,617.633667 489.936005,617.854126 494.400940,618.844177 
	C500.807404,620.264771 507.089417,622.246704 513.622437,624.230713 
	C502.921478,622.226685 492.022705,619.980835 480.867249,617.424805 
	C480.610504,617.114685 480.686035,617.175781 480.703369,617.151001 
	C480.720703,617.126282 480.741058,617.069397 480.741058,617.069397 
z"/>
<path fill="#AC272E" opacity="1.000000" stroke="none" 
	d="
M464.220825,612.828491 
	C464.070709,612.586609 464.089355,612.358337 464.128052,612.252136 
	C466.324036,613.046326 469.460785,610.688599 470.818115,614.412292 
	C468.649933,614.137085 466.510437,613.603699 464.220825,612.828491 
z"/>
<path fill="#AC272E" opacity="1.000000" stroke="none" 
	d="
M473.615448,615.353516 
	C474.923065,612.170776 475.905853,614.505493 477.211975,615.987305 
	C477.357300,616.313965 477.269409,616.372009 477.269409,616.371948 
	C476.206451,616.127136 475.143494,615.882324 473.615448,615.353516 
z"/>
<path fill="#E5C14D" opacity="1.000000" stroke="none" 
	d="
M477.168152,616.401855 
	C477.269409,616.372009 477.357300,616.313965 477.385071,616.270935 
	C477.412811,616.227905 477.493347,616.143311 477.416412,616.121582 
	C477.339478,616.099854 477.289551,616.188354 477.289551,616.188354 
	C477.289551,616.188354 476.940552,616.239563 476.940552,616.239563 
	C476.940552,616.239563 477.066864,616.431763 477.168152,616.401855 
z"/>
<path fill="#AC272E" opacity="1.000000" stroke="none" 
	d="
M478.130188,616.554443 
	C477.289551,616.188354 477.339478,616.099854 477.382874,616.073853 
	C478.343475,616.253662 479.260742,616.459473 480.459534,616.867371 
	C480.741058,617.069397 480.720703,617.126282 480.726715,617.185120 
	C480.732727,617.243958 480.746735,617.377808 480.746735,617.377808 
	C480.154785,617.225403 479.562805,617.072998 478.130188,616.554443 
z"/>
<path fill="#E5C14D" opacity="1.000000" stroke="none" 
	d="
M480.679840,617.412109 
	C480.746735,617.377808 480.732727,617.243958 480.709381,617.209839 
	C480.686035,617.175781 480.610504,617.114685 480.562439,617.123535 
	C480.514404,617.132324 480.612946,617.446472 480.679840,617.412109 
z"/>
<path fill="#BE3B3E" opacity="1.000000" stroke="none" 
	d="
M185.716156,443.404419 
	C185.844269,443.266418 186.093674,443.246185 186.218628,443.260345 
	C186.305908,443.500458 186.188385,443.671448 185.843826,443.845245 
	C185.696640,443.903015 185.588043,443.542419 185.716156,443.404419 
z"/>
<path fill="#D7C062" opacity="1.000000" stroke="none" 
	d="
M688.981018,403.618591 
	C688.904358,403.561279 688.835754,403.592133 688.864380,403.574829 
	C688.893066,403.557556 689.059326,403.443268 689.059326,403.443268 
	C689.059326,403.443268 689.057678,403.675903 688.981018,403.618591 
z"/>
<path fill="#F5AE3C" opacity="1.000000" stroke="none" 
	d="
M609.131836,427.020264 
	C607.404907,427.202454 605.846802,427.306335 604.224670,426.862610 
	C605.816223,425.243805 607.336182,423.725433 609.149780,423.175140 
	C619.682129,419.979614 630.283508,417.011749 641.264282,413.944458 
	C642.797913,413.659546 643.997131,413.557922 645.049072,413.110138 
	C658.444458,407.408020 671.818787,401.656219 685.198425,395.917084 
	C685.433960,396.358948 685.669495,396.800842 685.963745,397.488281 
	C677.516785,401.775635 669.108948,406.042450 660.475952,409.790771 
	C653.033813,413.022064 645.335327,415.662903 637.029663,418.734009 
	C632.949585,419.869629 629.580566,420.804565 626.232605,421.809631 
	C620.702576,423.469757 615.186096,425.175079 609.663940,426.861389 
	C609.663940,426.861389 609.300598,426.941925 609.131836,427.020264 
z"/>
<path fill="#B54E1C" opacity="1.000000" stroke="none" 
	d="
M610.014526,426.999146 
	C615.186096,425.175079 620.702576,423.469757 626.232605,421.809631 
	C629.580566,420.804565 632.949585,419.869629 636.726501,418.908081 
	C636.842468,419.732788 636.541016,420.552582 636.094604,421.664612 
	C629.525024,423.502563 623.116455,425.120972 616.666199,426.551392 
	C614.623047,427.004486 612.468628,426.955902 610.014526,426.999146 
z"/>
<path fill="#AC272E" opacity="1.000000" stroke="none" 
	d="
M636.005371,424.996490 
	C636.010681,424.992920 635.950256,424.948730 635.971680,424.979797 
	C635.993042,425.010895 636.000000,425.000061 636.005371,424.996490 
z"/>
<path fill="#F8CA19" opacity="1.000000" stroke="none" 
	d="
M442.102631,460.476654 
	C443.245392,471.786987 444.359894,482.684601 445.551575,493.573761 
	C447.739136,513.563049 449.910553,533.554504 452.206604,553.531494 
	C453.914276,568.389526 455.628510,583.251038 457.674988,598.064697 
	C459.349091,610.182983 458.092407,610.777344 446.325836,607.472534 
	C432.153687,603.492004 417.689087,600.185547 403.137970,598.018127 
	C386.583221,595.552185 369.819153,593.814392 353.098877,593.302856 
	C330.687531,592.617310 308.472290,596.095093 287.265350,603.148315 
	C272.256500,608.140137 257.907745,615.347778 243.699402,622.438171 
	C233.339539,627.608032 223.699417,634.216736 213.707047,640.131042 
	C212.631210,640.767822 211.346069,641.050964 209.341049,641.805603 
	C209.106079,637.785706 209.049362,634.371277 208.684631,630.990112 
	C206.906052,614.501953 205.129807,598.012634 203.194611,581.542358 
	C199.877716,553.312317 196.400879,525.101074 193.075256,496.871979 
	C191.304474,481.841064 189.749847,466.784790 188.008514,451.750305 
	C187.556778,447.849884 188.649017,445.029114 192.212753,443.015472 
	C205.342773,435.596527 217.968002,427.115936 231.603363,420.807709 
	C244.767212,414.717682 258.906647,410.707825 272.694733,406.010742 
	C277.709747,404.302307 282.883911,402.893951 288.094849,401.956848 
	C309.472687,398.112488 330.967468,396.331543 352.619598,399.495544 
	C367.075165,401.607880 381.580292,403.476562 395.938751,406.128265 
	C407.661743,408.293274 419.308655,411.086761 430.745148,414.435394 
	C433.625122,415.278656 437.197632,419.053040 437.663116,421.931396 
	C439.703857,434.550598 440.720856,447.335388 442.102631,460.476654 
z"/>
<path fill="#F8CA19" opacity="1.000000" stroke="none" 
	d="
M640.861511,413.966858 
	C630.283508,417.011749 619.682129,419.979614 609.149780,423.175140 
	C607.336182,423.725433 605.816223,425.243805 603.990723,426.616455 
	C603.467346,426.946960 603.113770,426.976044 602.154053,426.809937 
	C598.637085,427.290344 595.726257,427.965912 592.815430,428.641479 
	C592.157532,428.750061 591.499573,428.858612 590.147888,428.778076 
	C587.492249,428.502411 585.517212,428.226990 583.571045,428.363647 
	C576.954468,428.828186 570.357727,429.634308 563.736206,429.959808 
	C529.765198,431.629761 496.697601,425.519531 463.769257,418.215240 
	C460.879456,417.574219 457.872467,417.461426 454.919922,417.103333 
	C454.919922,417.103333 454.981567,417.076508 454.729034,416.848724 
	C451.701080,415.601837 448.977417,414.395233 446.137054,413.611481 
	C442.650055,412.649353 440.705994,410.445618 440.308716,407.011658 
	C439.132233,396.841705 438.274750,386.631927 436.935211,376.484894 
	C436.064087,369.886261 434.569031,363.370026 433.353516,356.816864 
	C433.244995,355.861664 433.136475,354.906464 433.185242,353.307434 
	C433.041199,351.374695 432.739868,350.085815 432.438538,348.796936 
	C432.398712,348.402252 432.358887,348.007568 432.487488,346.941772 
	C432.706543,343.298370 433.052734,340.296417 432.758209,337.358734 
	C431.223907,322.054077 429.688751,306.745636 427.797424,291.482727 
	C427.141846,286.192017 425.461945,281.028229 424.249878,275.806488 
	C424.183167,274.848145 424.116455,273.889771 424.242188,272.208710 
	C424.522766,269.536438 424.823120,267.568604 424.657379,265.640869 
	C424.233673,260.712494 423.607391,255.801437 423.053192,250.884445 
	C421.705811,238.929703 420.353363,226.975510 419.002991,215.021118 
	C426.653442,216.367447 434.363586,217.442657 441.943237,219.110748 
	C465.064484,224.199158 488.381775,227.045670 512.812500,226.206207 
	C515.066345,225.971863 516.600220,225.585098 518.134094,225.198303 
	C521.810669,225.093201 525.487244,224.988098 529.952942,225.062012 
	C534.740723,225.666733 539.047852,227.715317 542.085754,223.085312 
	C552.917114,220.811020 564.019165,219.389572 574.515381,216.059128 
	C589.621826,211.265930 604.426331,205.420731 619.091858,199.374802 
	C628.578369,195.463959 637.674194,190.559204 646.769836,185.767136 
	C650.993835,183.541656 651.726257,185.116486 652.311584,189.020554 
	C655.810425,212.356598 659.516357,235.661575 662.954956,259.756531 
	C662.517273,261.663544 662.155945,262.780396 662.056274,263.920135 
	C661.045471,275.481140 660.253479,287.064301 659.045471,298.604126 
	C657.941895,309.145569 656.497620,319.654785 655.027344,330.153534 
	C653.324219,342.315796 651.636414,354.486694 649.565308,366.589386 
	C646.857178,382.414948 643.779968,398.177307 640.861511,413.966858 
z"/>
<path fill="#F4A723" opacity="1.000000" stroke="none" 
	d="
M641.264282,413.944458 
	C643.779968,398.177307 646.857178,382.414948 649.565308,366.589386 
	C651.636414,354.486694 653.324219,342.315796 655.027344,330.153534 
	C656.497620,319.654785 657.941895,309.145569 659.045471,298.604126 
	C660.253479,287.064301 661.045471,275.481140 662.056274,263.920135 
	C662.155945,262.780396 662.517273,261.663544 662.982239,260.161194 
	C665.158264,271.584961 667.136963,283.379089 669.052856,295.183380 
	C671.369263,309.455811 673.617310,323.739380 675.922363,338.013702 
	C678.994324,357.036346 682.092834,376.054718 685.189209,395.496002 
	C671.818787,401.656219 658.444458,407.408020 645.049072,413.110138 
	C643.997131,413.557922 642.797913,413.659546 641.264282,413.944458 
z"/>
<path fill="#F5AE3C" opacity="1.000000" stroke="none" 
	d="
M418.702148,214.981110 
	C420.353363,226.975510 421.705811,238.929703 423.053192,250.884445 
	C423.607391,255.801437 424.233673,260.712494 424.657379,265.640869 
	C424.823120,267.568604 424.522766,269.536438 424.234619,271.848175 
	C421.943085,253.414200 419.851624,234.618042 417.778625,215.352325 
	C417.998505,214.902206 418.199921,214.921677 418.702148,214.981110 
z"/>
<path fill="#E5C14D" opacity="1.000000" stroke="none" 
	d="
M541.674561,223.135895 
	C539.047852,227.715317 534.740723,225.666733 530.415283,225.015427 
	C533.813477,224.255371 537.538391,223.720917 541.674561,223.135895 
z"/>
<path fill="#E5C14D" opacity="1.000000" stroke="none" 
	d="
M517.753906,225.173935 
	C516.600220,225.585098 515.066345,225.971863 513.242188,226.232269 
	C514.425781,225.787094 515.899780,225.468323 517.753906,225.173935 
z"/>
<path fill="#F5AE3C" opacity="1.000000" stroke="none" 
	d="
M433.315704,357.252136 
	C434.569031,363.370026 436.064087,369.886261 436.935211,376.484894 
	C438.274750,386.631927 439.132233,396.841705 440.308716,407.011658 
	C440.705994,410.445618 442.650055,412.649353 446.137054,413.611481 
	C448.977417,414.395233 451.701080,415.601837 454.728912,416.882324 
	C449.903778,416.149567 444.826263,415.155396 439.356079,414.094421 
	C437.516602,399.531494 436.074341,385.034973 434.620056,370.539612 
	C434.190094,366.253815 433.726196,361.971375 433.315704,357.252136 
z"/>
<path fill="#F5AE3C" opacity="1.000000" stroke="none" 
	d="
M424.229126,276.234924 
	C425.461945,281.028229 427.141846,286.192017 427.797424,291.482727 
	C429.688751,306.745636 431.223907,322.054077 432.758209,337.358734 
	C433.052734,340.296417 432.706543,343.298370 432.506348,346.644165 
	C430.213989,328.688263 428.065918,310.359528 425.931946,292.029144 
	C425.335938,286.909698 424.781708,281.785400 424.229126,276.234924 
z"/>
<path fill="#F5AE3C" opacity="1.000000" stroke="none" 
	d="
M432.396362,349.174500 
	C432.739868,350.085815 433.041199,351.374695 433.169556,352.946838 
	C432.782501,352.004089 432.568359,350.778107 432.396362,349.174500 
z"/>
<path fill="#F5AE3C" opacity="1.000000" stroke="none" 
	d="
M455.176147,417.367706 
	C457.872467,417.461426 460.879456,417.574219 463.769257,418.215240 
	C496.697601,425.519531 529.765198,431.629761 563.736206,429.959808 
	C570.357727,429.634308 576.954468,428.828186 583.571045,428.363647 
	C585.517212,428.226990 587.492249,428.502411 589.814087,428.787231 
	C578.093994,429.986145 566.025269,431.652344 553.931519,431.859497 
	C521.051392,432.422638 489.057770,425.963074 457.255219,418.427765 
	C456.620392,418.277344 456.038818,417.902313 455.176147,417.367706 
z"/>
<path fill="#F5AE3C" opacity="1.000000" stroke="none" 
	d="
M593.224304,428.677338 
	C595.726257,427.965912 598.637085,427.290344 601.886475,426.805420 
	C599.361084,427.568451 596.497131,428.140839 593.224304,428.677338 
z"/>
</svg>